<svg width="13" height="13" viewBox="0 0 13 13" fill="none" xmlns="http://www.w3.org/2000/svg">
<path d="M6.5 4.0625V6.5" stroke="#8B83B2" stroke-linecap="round" stroke-linejoin="round"/>
<path d="M8.6125 7.71973L6.5 6.50098" stroke="#8B83B2" stroke-linecap="round" stroke-linejoin="round"/>
<path d="M3.64453 5.06348H1.61328V3.03223" stroke="#8B83B2" stroke-linecap="round" stroke-linejoin="round"/>
<path d="M3.33984 9.6586C3.96466 10.2839 4.76091 10.7099 5.62787 10.8826C6.49482 11.0553 7.39352 10.9671 8.21029 10.6289C9.02706 10.2908 9.7252 9.71805 10.2164 8.98309C10.7076 8.24812 10.9698 7.38399 10.9698 6.5C10.9698 5.61601 10.7076 4.75188 10.2164 4.01692C9.7252 3.28196 9.02706 2.70919 8.21029 2.37107C7.39352 2.03294 6.49482 1.94466 5.62787 2.11738C4.76091 2.29011 3.96466 2.71608 3.33984 3.34141L1.61328 5.06289" stroke="#8B83B2" stroke-linecap="round" stroke-linejoin="round"/>
</svg>
