<svg width="12" height="12" viewBox="0 0 12 12" fill="none" xmlns="http://www.w3.org/2000/svg">
<path d="M11.7319 5.08135V4.12298C11.732 3.87595 11.6655 3.63348 11.5394 3.42104C11.4134 3.2086 11.2324 3.03405 11.0156 2.91573L6.89056 0.665767C6.68863 0.555244 6.46213 0.497314 6.23193 0.497314C6.00174 0.497314 5.77524 0.555244 5.57331 0.665767L1.44831 2.91573C1.23147 3.03405 1.05051 3.2086 0.924449 3.42104C0.79839 3.63348 0.731888 3.87595 0.731934 4.12298V5.08135H2.10693V9.20635H1.19027V10.5814H0.731934V11.498H11.7319V10.5814H11.2736V9.20635H10.3569V5.08135H11.7319ZM7.1486 5.08135V9.20635H5.31527V5.08135H7.1486ZM3.0236 5.08135H4.3986V9.20635H3.0236V5.08135ZM9.44027 9.20635H8.06527V5.08135H9.44027V9.20635Z" fill="#8B83B2"/>
</svg>
