<svg width="13" height="13" viewBox="0 0 13 13" fill="none" xmlns="http://www.w3.org/2000/svg">
<path d="M4.4668 8.125C5.92517 8.125 7.10742 6.94275 7.10742 5.48438C7.10742 4.026 5.92517 2.84375 4.4668 2.84375C3.00842 2.84375 1.82617 4.026 1.82617 5.48438C1.82617 6.94275 3.00842 8.125 4.4668 8.125Z" stroke="#6574C5" stroke-miterlimit="10"/>
<path d="M7.89062 2.94023C8.12406 2.87692 8.36478 2.84449 8.60664 2.84375C9.30698 2.84375 9.97863 3.12196 10.4738 3.61717C10.9691 4.11238 11.2473 4.78404 11.2473 5.48438C11.2473 6.18471 10.9691 6.85637 10.4738 7.35158C9.97863 7.84679 9.30698 8.125 8.60664 8.125" stroke="#6574C5" stroke-linecap="round" stroke-linejoin="round"/>
<path d="M0.8125 10.0244C1.22482 9.43766 1.77228 8.95877 2.40866 8.62818C3.04504 8.29759 3.75163 8.125 4.46875 8.125C5.18587 8.125 5.89246 8.29759 6.52884 8.62818C7.16522 8.95877 7.71268 9.43766 8.125 10.0244" stroke="#6574C5" stroke-linecap="round" stroke-linejoin="round"/>
<path d="M8.60742 8.125C9.32461 8.12456 10.0313 8.29693 10.6678 8.62753C11.3042 8.95812 11.8516 9.43721 12.2637 10.0242" stroke="#6574C5" stroke-linecap="round" stroke-linejoin="round"/>
</svg>
