<svg width="14" height="10" viewBox="0 0 14 10" fill="none" xmlns="http://www.w3.org/2000/svg">
<path d="M13.0217 0.58763L5.53642 8.07238C5.4861 8.1229 5.42629 8.16299 5.36043 8.19035C5.29457 8.2177 5.22396 8.23179 5.15265 8.23179C5.08134 8.23179 5.01073 8.2177 4.94487 8.19035C4.87901 8.16299 4.81921 8.1229 4.76888 8.07238L1.87421 5.175C1.82389 5.12448 1.76408 5.08439 1.69822 5.05703C1.63237 5.02968 1.56176 5.0156 1.49044 5.0156C1.41913 5.0156 1.34852 5.02968 1.28266 5.05703C1.21681 5.08439 1.157 5.12448 1.10667 5.175C1.05615 5.22533 1.01606 5.28514 0.988702 5.351C0.961347 5.41685 0.947266 5.48746 0.947266 5.55877C0.947266 5.63009 0.961347 5.7007 0.988702 5.76656C1.01606 5.83241 1.05615 5.89222 1.10667 5.94255L4.00242 8.83776C4.30789 9.14266 4.72186 9.31391 5.15346 9.31391C5.58507 9.31391 5.99903 9.14266 6.30451 8.83776L13.7893 1.35463C13.8397 1.30431 13.8797 1.24454 13.907 1.17873C13.9343 1.11293 13.9484 1.04238 13.9484 0.971129C13.9484 0.899881 13.9343 0.829333 13.907 0.763526C13.8797 0.697719 13.8397 0.637946 13.7893 0.58763C13.7389 0.537105 13.6791 0.497014 13.6133 0.469659C13.5474 0.442304 13.4768 0.428223 13.4055 0.428223C13.3342 0.428223 13.2636 0.442304 13.1977 0.469659C13.1318 0.497014 13.072 0.537105 13.0217 0.58763Z" fill="#329C47"/>
</svg>
