<svg width="14" height="11" viewBox="0 0 14 11" fill="none" xmlns="http://www.w3.org/2000/svg">
<path d="M4.39041 8.57348L1.49585 5.67621L13.4107 1.99713C13.4705 1.93754 13.5178 1.86676 13.5502 1.78884C13.5825 1.71088 13.5992 1.62731 13.5992 1.54291C13.5992 1.45851 13.5825 1.37493 13.5502 1.29698C13.5178 1.21908 13.4705 1.14832 13.4108 1.08874C13.3512 1.02893 13.2804 0.981475 13.2024 0.949087C13.1244 0.916681 13.0407 0.9 12.9563 0.9C12.8718 0.9 12.7881 0.916681 12.7101 0.949087C12.6321 0.981489 12.5613 1.02897 12.5017 1.08882C12.5017 1.08882 12.5017 1.08883 12.5016 1.08884L5.0165 8.57344L5.01635 8.57359C4.97532 8.61478 4.92655 8.64747 4.87285 8.66978C4.81916 8.69208 4.76158 8.70356 4.70343 8.70356C4.64529 8.70356 4.58771 8.69208 4.53401 8.66978C4.48031 8.64747 4.43155 8.61478 4.39051 8.57359L4.39041 8.57348Z" fill="#329C47" stroke="#329C47" stroke-width="0.2"/>
</svg>
