<svg width="36" height="36" viewBox="0 0 36 36" fill="none" xmlns="http://www.w3.org/2000/svg">
<rect opacity="0.08" width="36" height="36" rx="10" fill="#FAAD13"/>
<path d="M18 14.2852V17.9977" stroke="#FAAD13" stroke-width="1.3" stroke-linecap="round" stroke-linejoin="round"/>
<path d="M21.2175 19.8523L18 17.9961" stroke="#FAAD13" stroke-width="1.3" stroke-linecap="round" stroke-linejoin="round"/>
<path d="M22.3457 15.8105H25.4395V12.7168" stroke="#FAAD13" stroke-width="1.3" stroke-linecap="round" stroke-linejoin="round"/>
<path d="M22.8124 22.8084C21.8607 23.7609 20.648 24.4097 19.3275 24.6727C18.0071 24.9358 16.6383 24.8013 15.3943 24.2863C14.1503 23.7714 13.087 22.899 12.3389 21.7796C11.5907 20.6602 11.1914 19.344 11.1914 17.9977C11.1914 16.6513 11.5907 15.3351 12.3389 14.2157C13.087 13.0963 14.1503 12.224 15.3943 11.709C16.6383 11.194 18.0071 11.0595 19.3275 11.3226C20.648 11.5857 21.8607 12.2345 22.8124 13.1869L25.4421 15.8088" stroke="#FAAD13" stroke-width="1.3" stroke-linecap="round" stroke-linejoin="round"/>
</svg>
