<svg width="37" height="36" viewBox="0 0 37 36" fill="none" xmlns="http://www.w3.org/2000/svg">
<rect opacity="0.08" x="0.5" width="36" height="36" rx="10" fill="#56A6D5"/>
<path d="M18.5 14.2852V17.9977" stroke="#56A6D5" stroke-width="1.3" stroke-linecap="round" stroke-linejoin="round"/>
<path d="M21.7175 19.8523L18.5 17.9961" stroke="#56A6D5" stroke-width="1.3" stroke-linecap="round" stroke-linejoin="round"/>
<path d="M22.8457 15.8105H25.9395V12.7168" stroke="#56A6D5" stroke-width="1.3" stroke-linecap="round" stroke-linejoin="round"/>
<path d="M23.3124 22.8084C22.3607 23.7609 21.148 24.4097 19.8275 24.6727C18.5071 24.9358 17.1383 24.8013 15.8943 24.2863C14.6503 23.7714 13.587 22.899 12.8389 21.7796C12.0907 20.6602 11.6914 19.344 11.6914 17.9977C11.6914 16.6513 12.0907 15.3351 12.8389 14.2157C13.587 13.0963 14.6503 12.224 15.8943 11.709C17.1383 11.194 18.5071 11.0595 19.8275 11.3226C21.148 11.5857 22.3607 12.2345 23.3124 13.1869L25.9421 15.8088" stroke="#56A6D5" stroke-width="1.3" stroke-linecap="round" stroke-linejoin="round"/>
</svg>
