<svg width="36" height="36" viewBox="0 0 36 36" fill="none" xmlns="http://www.w3.org/2000/svg">
<rect opacity="0.1" width="36" height="36" rx="10" fill="#52B186"/>
<path d="M17.9961 14.2852V17.9977" stroke="#52B186" stroke-width="1.3" stroke-linecap="round" stroke-linejoin="round"/>
<path d="M21.2136 19.8523L17.9961 17.9961" stroke="#52B186" stroke-width="1.3" stroke-linecap="round" stroke-linejoin="round"/>
<path d="M22.3447 15.8105H25.4385V12.7168" stroke="#52B186" stroke-width="1.3" stroke-linecap="round" stroke-linejoin="round"/>
<path d="M22.8085 22.8084C21.8568 23.7609 20.6441 24.4097 19.3236 24.6727C18.0032 24.9358 16.6344 24.8013 15.3904 24.2863C14.1464 23.7714 13.0831 22.899 12.3349 21.7796C11.5868 20.6602 11.1875 19.344 11.1875 17.9977C11.1875 16.6513 11.5868 15.3351 12.3349 14.2157C13.0831 13.0963 14.1464 12.224 15.3904 11.709C16.6344 11.194 18.0032 11.0595 19.3236 11.3226C20.6441 11.5857 21.8568 12.2345 22.8085 13.1869L25.4381 15.8088" stroke="#52B186" stroke-width="1.3" stroke-linecap="round" stroke-linejoin="round"/>
</svg>
