<svg width="37" height="36" viewBox="0 0 37 36" fill="none" xmlns="http://www.w3.org/2000/svg">
<rect opacity="0.08" x="0.5" width="36" height="36" rx="10" fill="#C4A091"/>
<path d="M17.5977 14.2852V17.9977" stroke="#C4A091" stroke-width="1.3" stroke-linecap="round" stroke-linejoin="round"/>
<path d="M20.8152 19.8523L17.5977 17.9961" stroke="#C4A091" stroke-width="1.3" stroke-linecap="round" stroke-linejoin="round"/>
<path d="M21.9463 15.8105H25.04V12.7168" stroke="#C4A091" stroke-width="1.3" stroke-linecap="round" stroke-linejoin="round"/>
<path d="M22.41 22.8084C21.4584 23.7609 20.2456 24.4097 18.9252 24.6727C17.6048 24.9358 16.236 24.8013 14.992 24.2863C13.748 23.7714 12.6846 22.899 11.9365 21.7796C11.1884 20.6602 10.7891 19.344 10.7891 17.9977C10.7891 16.6513 11.1884 15.3351 11.9365 14.2157C12.6846 13.0963 13.748 12.224 14.992 11.709C16.236 11.194 17.6048 11.0595 18.9252 11.3226C20.2456 11.5857 21.4584 12.2345 22.41 13.1869L25.0397 15.8088" stroke="#C4A091" stroke-width="1.3" stroke-linecap="round" stroke-linejoin="round"/>
</svg>
