<svg width="27" height="27" viewBox="0 0 27 27" fill="none" xmlns="http://www.w3.org/2000/svg">
<circle cx="13.5" cy="13.5" r="13.5" fill="#F4F1FE"/>
<path d="M12.8418 16.5615L15.093 18.8127L17.3441 16.5615" stroke="#6634E9" stroke-linecap="round" stroke-linejoin="round"/>
<path d="M15.0938 13.5V18.8125" stroke="#6634E9" stroke-linecap="round" stroke-linejoin="round"/>
<path d="M11.375 18.8125H9.78125C8.79498 18.8125 7.8491 18.4207 7.1517 17.7233C6.4543 17.0259 6.0625 16.08 6.0625 15.0938C6.0625 14.1075 6.4543 13.1616 7.1517 12.4642C7.8491 11.7668 8.79498 11.375 9.78125 11.375C10.0924 11.3749 10.4024 11.4128 10.7043 11.4879" stroke="#6634E9" stroke-linecap="round" stroke-linejoin="round"/>
<path d="M10.3125 13.5C10.3125 12.6582 10.5125 11.8285 10.8961 11.0792C11.2797 10.3299 11.8358 9.68247 12.5187 9.19028C13.2016 8.69808 13.9917 8.37521 14.8238 8.24826C15.656 8.12131 16.5064 8.19393 17.305 8.46012C18.1035 8.72631 18.8274 9.17846 19.417 9.77931C20.0065 10.3802 20.4449 11.1125 20.6959 11.916C20.9468 12.7195 21.0033 13.5711 20.8606 14.4007C20.7179 15.2303 20.3801 16.0141 19.875 16.6875" stroke="#6634E9" stroke-linecap="round" stroke-linejoin="round"/>
</svg>
