<svg width="305" height="127" viewBox="0 0 305 127" fill="none" xmlns="http://www.w3.org/2000/svg">
<path fill-rule="evenodd" clip-rule="evenodd" d="M64.768 114.801H192.896C193.621 114.801 194.328 114.722 195.008 114.573C195.688 114.722 196.395 114.801 197.12 114.801H270.336C275.779 114.801 280.192 110.382 280.192 104.931C280.192 99.4795 275.779 95.0606 270.336 95.0606H261.888C256.445 95.0606 252.032 90.6416 252.032 85.1906C252.032 79.7395 256.445 75.3206 261.888 75.3206H288.64C294.083 75.3206 298.496 70.9016 298.496 65.4506C298.496 59.9995 294.083 55.5806 288.64 55.5806H257.664C263.107 55.5806 267.52 51.1616 267.52 45.7106C267.52 40.2595 263.107 35.8406 257.664 35.8406H167.552C172.995 35.8406 177.408 31.4216 177.408 25.9706C177.408 20.5195 172.995 16.1006 167.552 16.1006H87.296C81.8527 16.1006 77.44 20.5195 77.44 25.9706C77.44 31.4216 81.8527 35.8406 87.296 35.8406H30.976C25.5327 35.8406 21.12 40.2595 21.12 45.7106C21.12 51.1616 25.5327 55.5806 30.976 55.5806H66.176C71.6193 55.5806 76.032 59.9995 76.032 65.4506C76.032 70.9016 71.6193 75.3206 66.176 75.3206H9.856C4.41268 75.3206 0 79.7395 0 85.1906C0 90.6416 4.41268 95.0606 9.856 95.0606H64.768C59.3247 95.0606 54.912 99.4795 54.912 104.931C54.912 110.382 59.3247 114.801 64.768 114.801ZM294.272 114.801C299.715 114.801 304.128 110.382 304.128 104.931C304.128 99.4795 299.715 95.0606 294.272 95.0606C288.829 95.0606 284.416 99.4795 284.416 104.931C284.416 110.382 288.829 114.801 294.272 114.801Z" fill="#FBFAFD"/>
<path fill-rule="evenodd" clip-rule="evenodd" d="M135.335 84.2129C135.225 84.9929 135.168 85.7901 135.168 86.6005C135.168 95.9452 142.733 103.521 152.064 103.521C161.395 103.521 168.96 95.9452 168.96 86.6005C168.96 85.7901 168.903 84.9929 168.793 84.2129H209.792V121.851C209.792 124.187 207.901 126.081 205.568 126.081H98.5599C96.2271 126.081 94.3359 124.187 94.3359 121.851V84.2129H135.335Z" fill="white"/>
<path fill-rule="evenodd" clip-rule="evenodd" d="M170.368 83.7803C170.368 93.9037 162.173 102.11 152.064 102.11C141.955 102.11 133.76 93.9037 133.76 83.7803C133.76 83.4523 133.769 83.1264 133.786 82.8027H94.3359L107.797 42.9451C108.377 41.2268 109.987 40.0703 111.798 40.0703H192.329C194.141 40.0703 195.751 41.2268 196.331 42.9451L209.792 82.8027H170.342C170.359 83.1264 170.368 83.4523 170.368 83.7803Z" fill="white"/>
<path fill-rule="evenodd" clip-rule="evenodd" d="M167.689 85.1266C167.689 92.9493 160.693 100.701 152.064 100.701C143.434 100.701 136.438 92.9493 136.438 85.1266C136.438 84.8732 136.446 83.2113 136.46 82.9612H107.008L118.499 54.9822C118.994 53.6544 120.369 52.7607 121.915 52.7607H182.213C183.759 52.7607 185.133 53.6544 185.629 54.9822L197.12 82.9612H167.667C167.682 83.2113 167.689 84.8732 167.689 85.1266Z" fill="#EEE8FF"/>
<path fill-rule="evenodd" clip-rule="evenodd" d="M96.0957 83.0928V120.441C96.0957 121.803 97.1989 122.908 98.5597 122.908H205.568C206.929 122.908 208.032 121.803 208.032 120.441V83.0928L194.663 43.51C194.325 42.5076 193.386 41.833 192.329 41.833H111.798C110.742 41.833 109.803 42.5076 109.464 43.51L96.0957 83.0928Z" stroke="#6634E9" stroke-width="2.5"/>
<path d="M114.048 82.3701C119.591 82.3701 125.572 82.3701 131.993 82.3701C134.635 82.3701 134.635 84.2293 134.635 85.1901C134.635 94.5348 142.373 102.11 151.919 102.11C161.465 102.11 169.204 94.5348 169.204 85.1901C169.204 84.2293 169.204 82.3701 171.846 82.3701H206.976M103.592 82.3701H107.008H103.592Z" stroke="#6634E9" stroke-width="2.5" stroke-linecap="round" stroke-linejoin="round"/>
<path d="M187.405 8.06686L171.777 25.6258M150.797 2V25.6258V2ZM114.049 8.06686L129.677 25.6258L114.049 8.06686Z" stroke="#6634E9" stroke-width="2.5" stroke-linecap="round" stroke-linejoin="round"/>
</svg>
