<svg width="167" height="102" viewBox="0 0 167 102" fill="none" xmlns="http://www.w3.org/2000/svg">
<path fill-rule="evenodd" clip-rule="evenodd" d="M160 15C163.866 15 167 18.134 167 22C167 25.866 163.866 29 160 29H120C123.866 29 127 32.134 127 36C127 39.866 123.866 43 120 43H142C145.866 43 149 46.134 149 50C149 53.866 145.866 57 142 57H131.826C126.952 57 123 60.134 123 64C123 66.5773 125 68.9107 129 71C132.866 71 136 74.134 136 78C136 81.866 132.866 85 129 85H46C42.134 85 39 81.866 39 78C39 74.134 42.134 71 46 71H7C3.13401 71 0 67.866 0 64C0 60.134 3.13401 57 7 57H47C50.866 57 54 53.866 54 50C54 46.134 50.866 43 47 43H22C18.134 43 15 39.866 15 36C15 32.134 18.134 29 22 29H62C58.134 29 55 25.866 55 22C55 18.134 58.134 15 62 15H160ZM160 43C163.866 43 167 46.134 167 50C167 53.866 163.866 57 160 57C156.134 57 153 53.866 153 50C153 46.134 156.134 43 160 43Z" fill="#6634E9" fill-opacity="0.1"/>
<path fill-rule="evenodd" clip-rule="evenodd" d="M106.671 14.0002L115.973 81.8429L116.809 88.6492C117.078 90.8419 115.519 92.8377 113.326 93.1069L54.766 100.297C52.5733 100.566 50.5776 99.0071 50.3083 96.8145L41.2926 23.3869C41.158 22.2906 41.9376 21.2927 43.0339 21.1581C43.0408 21.1573 43.0478 21.1565 43.0547 21.1557L47.9131 20.6107" fill="white"/>
<path d="M106.671 14.0002L115.973 81.8429L116.809 88.6492C117.078 90.8419 115.519 92.8377 113.326 93.1069L54.766 100.297C52.5733 100.566 50.5776 99.0071 50.3083 96.8145L41.2926 23.3869C41.158 22.2906 41.9376 21.2927 43.0339 21.1581C43.0408 21.1573 43.0478 21.1565 43.0547 21.1557L47.9131 20.6107" stroke="#6634E9" stroke-width="2.5" stroke-linecap="round"/>
<path fill-rule="evenodd" clip-rule="evenodd" d="M51.8412 20.1701L56.4282 19.6555L51.8412 20.1701Z" fill="white"/>
<path d="M51.8412 20.1701L56.4282 19.6555" stroke="#6634E9" stroke-width="2.5" stroke-linecap="round"/>
<path fill-rule="evenodd" clip-rule="evenodd" d="M104.141 18.2691L112.56 79.7528L113.318 85.921C113.562 87.9081 112.168 89.7145 110.204 89.9556L57.762 96.3946C55.7984 96.6357 54.0088 95.2203 53.7648 93.2332L45.6148 26.8567C45.4802 25.7603 46.2598 24.7625 47.3562 24.6278L53.8438 23.8313" fill="#6634E9" fill-opacity="0.1"/>
<path d="M60.9219 4C60.9219 2.48122 62.1531 1.25 63.6719 1.25H109.229C109.958 1.25 110.657 1.5395 111.173 2.05485L124.616 15.4898C125.132 16.0056 125.422 16.7053 125.422 17.4349V80C125.422 81.5188 124.191 82.75 122.672 82.75H63.6719C62.1531 82.75 60.9219 81.5188 60.9219 80V4Z" fill="white" stroke="#6634E9" stroke-width="2.5"/>
<path d="M109.672 2.40283V14C109.672 15.6569 111.015 17 112.672 17H120.605" stroke="#6634E9" stroke-width="2.5" stroke-linecap="round" stroke-linejoin="round"/>
<path d="M71 68H97M71 17H97H71ZM71 29H114H71ZM71 42H114H71ZM71 55H114H71Z" stroke="#6634E9" stroke-width="2.5" stroke-linecap="round" stroke-linejoin="round"/>
</svg>
