<svg width="11" height="10" viewBox="0 0 11 10" fill="none" xmlns="http://www.w3.org/2000/svg">
<path d="M10.5838 0.232637C10.4348 0.0836796 10.2327 0 10.022 0C9.81133 0 9.60926 0.0836796 9.46026 0.232637L5.81641 3.87649L2.17255 0.232637C2.02355 0.0836796 1.82149 0 1.6108 0C1.40011 0 1.19805 0.0836796 1.04904 0.232637C0.900086 0.381639 0.816406 0.583702 0.816406 0.794391C0.816406 1.00508 0.900086 1.20714 1.04904 1.35615L4.6929 5L1.04904 8.64386C0.900086 8.79286 0.816406 8.99492 0.816406 9.20561C0.816406 9.4163 0.900086 9.61836 1.04904 9.76736C1.19805 9.91632 1.40011 10 1.6108 10C1.82149 10 2.02355 9.91632 2.17255 9.76736L5.81641 6.12351L9.46026 9.76736C9.60926 9.91632 9.81133 10 10.022 10C10.2327 10 10.4348 9.91632 10.5838 9.76736C10.7327 9.61836 10.8164 9.4163 10.8164 9.20561C10.8164 8.99492 10.7327 8.79286 10.5838 8.64386L6.93991 5L10.5838 1.35615C10.7327 1.20714 10.8164 1.00508 10.8164 0.794391C10.8164 0.583702 10.7327 0.381639 10.5838 0.232637Z" fill="#E13434"/>
</svg>
