<svg width="18" height="19" viewBox="0 0 18 19" fill="none" xmlns="http://www.w3.org/2000/svg">
<g clip-path="url(#clip0_1097_6758)">
<path d="M8.99906 15.5914C10.5792 15.5896 12.0941 14.9611 13.2115 13.8438C14.3288 12.7265 14.9573 11.2115 14.9591 9.6314V6.65141C14.9591 5.07072 14.3311 3.55477 13.2134 2.43705C12.0957 1.31933 10.5798 0.691406 8.99906 0.691406C7.41837 0.691406 5.90242 1.31933 4.78471 2.43705C3.66699 3.55477 3.03906 5.07072 3.03906 6.65141V9.6314C3.04084 11.2115 3.66933 12.7265 4.78667 13.8438C5.904 14.9611 7.41892 15.5896 8.99906 15.5914ZM4.52906 7.39641H7.50906V5.90641H4.59611C4.77121 4.86527 5.30959 3.91988 6.11565 3.23806C6.92171 2.55624 7.94331 2.18212 8.99906 2.18212C10.0548 2.18212 11.0764 2.55624 11.8825 3.23806C12.6885 3.91988 13.2269 4.86527 13.402 5.90641H10.4891V7.39641H13.4691V8.8864H10.4891V10.3764H13.402C13.2269 11.4175 12.6885 12.3629 11.8825 13.0448C11.0764 13.7266 10.0548 14.1007 8.99906 14.1007C7.94331 14.1007 6.92171 13.7266 6.11565 13.0448C5.30959 12.3629 4.77121 11.4175 4.59611 10.3764H7.50906V8.8864H4.52906V7.39641Z" fill="#6634E9"/>
<path d="M16.4486 10.3765C16.4466 12.1541 15.7396 13.8584 14.4826 15.1154C13.2256 16.3724 11.5213 17.0795 9.74359 17.0815H8.25359C6.47598 17.0793 4.7718 16.3722 3.51484 15.1152C2.25788 13.8583 1.55076 12.1541 1.54859 10.3765H0.0585938C0.0611569 12.5491 0.925379 14.6321 2.46168 16.1684C3.99799 17.7047 6.08093 18.5689 8.25359 18.5715H9.74359C11.9163 18.5689 13.9992 17.7047 15.5355 16.1684C17.0718 14.6321 17.936 12.5491 17.9386 10.3765H16.4486Z" fill="#6634E9"/>
</g>
<defs>
<clipPath id="clip0_1097_6758">
<rect width="17.88" height="17.88" fill="white" transform="translate(0.0585938 0.691406)"/>
</clipPath>
</defs>
</svg>
