<svg width="216" height="99" viewBox="0 0 216 99" fill="none" xmlns="http://www.w3.org/2000/svg">
<path fill-rule="evenodd" clip-rule="evenodd" d="M46 85H137C137.515 85 138.017 84.9444 138.5 84.8389C138.983 84.9444 139.485 85 140 85H192C195.866 85 199 81.866 199 78C199 74.134 195.866 71 192 71H186C182.134 71 179 67.866 179 64C179 60.134 182.134 57 186 57H205C208.866 57 212 53.866 212 50C212 46.134 208.866 43 205 43H183C186.866 43 190 39.866 190 36C190 32.134 186.866 29 183 29H119C122.866 29 126 25.866 126 22C126 18.134 122.866 15 119 15H62C58.134 15 55 18.134 55 22C55 25.866 58.134 29 62 29H22C18.134 29 15 32.134 15 36C15 39.866 18.134 43 22 43H47C50.866 43 54 46.134 54 50C54 53.866 50.866 57 47 57H7C3.13401 57 0 60.134 0 64C0 67.866 3.13401 71 7 71H46C42.134 71 39 74.134 39 78C39 81.866 42.134 85 46 85ZM209 85C212.866 85 216 81.866 216 78C216 74.134 212.866 71 209 71C205.134 71 202 74.134 202 78C202 81.866 205.134 85 209 85Z" fill="#6634E9" fill-opacity="0.1"/>
<mask id="path-2-inside-1_3189_18561" fill="white">
<path fill-rule="evenodd" clip-rule="evenodd" d="M151.577 77.4813C149 79.4167 146.488 81.236 143.644 82.8082L143.809 96.9658C143.822 98.0761 142.937 98.9868 141.832 98.9999C141.383 99.005 140.945 98.8582 140.589 98.5828L127.926 88.789C123.18 89.8873 118.173 90.4747 113 90.4747C82.6243 90.4747 58 70.2213 58 45.2374C58 20.2535 82.6243 0 113 0C143.376 0 168 20.2535 168 45.2374C168 52.1524 166.114 58.705 162.741 64.5662C162.119 65.6471 161.446 66.7046 160.726 67.7364C160.726 67.7364 159.317 69.8666 156.5 72.8824C153.683 75.8983 151.577 77.4813 151.577 77.4813Z"/>
</mask>
<path fill-rule="evenodd" clip-rule="evenodd" d="M151.577 77.4813C149 79.4167 146.488 81.236 143.644 82.8082L143.809 96.9658C143.822 98.0761 142.937 98.9868 141.832 98.9999C141.383 99.005 140.945 98.8582 140.589 98.5828L127.926 88.789C123.18 89.8873 118.173 90.4747 113 90.4747C82.6243 90.4747 58 70.2213 58 45.2374C58 20.2535 82.6243 0 113 0C143.376 0 168 20.2535 168 45.2374C168 52.1524 166.114 58.705 162.741 64.5662C162.119 65.6471 161.446 66.7046 160.726 67.7364C160.726 67.7364 159.317 69.8666 156.5 72.8824C153.683 75.8983 151.577 77.4813 151.577 77.4813Z" fill="white"/>
<path d="M151.577 77.4813L153.078 79.4803L153.079 79.4797L151.577 77.4813ZM143.644 82.8082L142.434 80.6203L141.127 81.3432L141.144 82.8372L143.644 82.8082ZM143.809 96.9658L146.308 96.9368L143.809 96.9658ZM141.832 98.9999L141.861 101.5L141.862 101.5L141.832 98.9999ZM140.589 98.5828L139.06 100.56L140.589 98.5828ZM127.926 88.789L129.456 86.8114L128.518 86.086L127.363 86.3533L127.926 88.789ZM162.741 64.5662L164.908 65.813L162.741 64.5662ZM160.726 67.7364L158.676 66.305L158.658 66.331L158.641 66.3575L160.726 67.7364ZM150.075 75.4824C147.511 77.4084 145.116 79.1378 142.434 80.6203L144.854 84.9961C147.86 83.3341 150.489 81.4251 153.078 79.4803L150.075 75.4824ZM141.144 82.8372L141.309 96.9949L146.308 96.9368L146.144 82.7791L141.144 82.8372ZM141.309 96.9949C141.306 96.737 141.514 96.5035 141.802 96.5L141.862 101.5C144.359 101.47 146.337 99.4153 146.308 96.9368L141.309 96.9949ZM141.804 96.5C141.919 96.4987 142.03 96.5365 142.119 96.6053L139.06 100.56C139.861 101.18 140.847 101.511 141.861 101.5L141.804 96.5ZM142.119 96.6053L129.456 86.8114L126.397 90.7665L139.06 100.56L142.119 96.6053ZM127.363 86.3533C122.802 87.4087 117.984 87.9747 113 87.9747V92.9747C118.363 92.9747 123.558 92.3658 128.49 91.2246L127.363 86.3533ZM113 87.9747C83.5259 87.9747 60.5 68.4058 60.5 45.2374H55.5C55.5 72.0368 81.7228 92.9747 113 92.9747V87.9747ZM60.5 45.2374C60.5 22.0689 83.5259 2.5 113 2.5V-2.5C81.7228 -2.5 55.5 18.438 55.5 45.2374H60.5ZM113 2.5C142.474 2.5 165.5 22.0689 165.5 45.2374H170.5C170.5 18.438 144.277 -2.5 113 -2.5V2.5ZM165.5 45.2374C165.5 51.6866 163.743 57.8123 160.574 63.3193L164.908 65.813C168.484 59.5978 170.5 52.6182 170.5 45.2374H165.5ZM160.574 63.3193C159.989 64.3359 159.356 65.3319 158.676 66.305L162.775 69.1678C163.537 68.0773 164.249 66.9583 164.908 65.813L160.574 63.3193ZM160.726 67.7364C158.641 66.3575 158.641 66.3572 158.641 66.357C158.641 66.3569 158.641 66.3567 158.641 66.3565C158.641 66.3562 158.642 66.3559 158.642 66.3557C158.642 66.3552 158.642 66.3549 158.642 66.3547C158.643 66.3542 158.643 66.3543 158.642 66.3549C158.641 66.3561 158.639 66.3593 158.636 66.3645C158.629 66.3748 158.616 66.3932 158.599 66.4192C158.563 66.4712 158.506 66.5538 158.426 66.6646C158.268 66.8862 158.024 67.2203 157.693 67.6479C157.03 68.5033 156.024 69.7302 154.673 71.1758L158.327 74.589C159.794 73.0188 160.9 71.6728 161.646 70.7092C162.019 70.2272 162.303 69.8403 162.497 69.5683C162.594 69.4322 162.669 69.3248 162.721 69.2485C162.747 69.2104 162.768 69.18 162.783 69.1577C162.79 69.1466 162.796 69.1375 162.801 69.1304C162.804 69.1269 162.806 69.1238 162.807 69.1213C162.808 69.1201 162.809 69.119 162.809 69.118C162.81 69.1175 162.81 69.117 162.81 69.1166C162.81 69.1164 162.811 69.1161 162.811 69.116C162.811 69.1157 162.811 69.1154 160.726 67.7364ZM154.673 71.1758C153.327 72.6167 152.156 73.7098 151.331 74.4355C150.919 74.7982 150.593 75.0685 150.377 75.244C150.268 75.3318 150.187 75.3958 150.136 75.4357C150.11 75.4557 150.092 75.4696 150.082 75.4775C150.077 75.4814 150.073 75.4839 150.072 75.4848C150.072 75.4852 150.071 75.4853 150.072 75.485C150.072 75.4849 150.072 75.4846 150.073 75.4843C150.073 75.4841 150.073 75.4839 150.074 75.4837C150.074 75.4836 150.074 75.4834 150.074 75.4833C150.074 75.4832 150.075 75.483 151.577 77.4813C153.079 79.4797 153.079 79.4795 153.079 79.4793C153.08 79.4792 153.08 79.479 153.08 79.4789C153.08 79.4785 153.081 79.4782 153.081 79.4778C153.082 79.4771 153.083 79.4763 153.085 79.4754C153.087 79.4735 153.09 79.4713 153.094 79.4686C153.101 79.4634 153.109 79.4565 153.12 79.4482C153.142 79.4314 153.172 79.4084 153.21 79.3792C153.285 79.3208 153.39 79.2375 153.523 79.1297C153.789 78.9142 154.167 78.6002 154.633 78.1901C155.565 77.3704 156.856 76.164 158.327 74.589L154.673 71.1758Z" fill="#6634E9" mask="url(#path-2-inside-1_3189_18561)"/>
<path fill-rule="evenodd" clip-rule="evenodd" d="M145.853 32.5895C151.157 32.5895 156.266 31.957 161.051 30.7868C162.961 35.1364 164 39.8232 164 44.7074C164 51.0432 162.251 57.0469 159.123 62.4171C158.547 63.4075 157.923 64.3764 157.255 65.3218C156.2 66.8146 155.448 67.8687 154.785 68.7139C153.219 70.7135 152.155 71.5444 148.771 74.2505C146.515 76.0553 144.052 77.6906 141.415 79.1311L141.568 92.1029C141.58 93.1202 141.889 94.9878 140.865 95C140.449 95.0046 138.913 93.8367 138.583 93.5844L128.373 84.4666C123.972 85.4729 117.797 86.1555 113 86.1555C84.8335 86.1555 62 67.5985 62 44.7074C62 25.961 77.3133 10.1215 98.3283 5C103.832 20.8745 123.023 32.5895 145.853 32.5895ZM93.291 39.1483C89.986 39.1483 87.3067 41.8448 87.3067 45.1711C87.3067 48.4974 89.986 51.1939 93.291 51.1939C96.596 51.1939 99.2753 48.4974 99.2753 45.1711C99.2753 41.8448 96.596 39.1483 93.291 39.1483ZM112.241 39.1483C108.936 39.1483 106.257 41.8448 106.257 45.1711C106.257 48.4974 108.936 51.1939 112.241 51.1939C115.546 51.1939 118.225 48.4974 118.225 45.1711C118.225 41.8448 115.546 39.1483 112.241 39.1483ZM131.191 39.1483C127.886 39.1483 125.207 41.8448 125.207 45.1711C125.207 48.4974 127.886 51.1939 131.191 51.1939C134.496 51.1939 137.176 48.4974 137.176 45.1711C137.176 41.8448 134.496 39.1483 131.191 39.1483Z" fill="#6634E9" fill-opacity="0.1"/>
<path fill-rule="evenodd" clip-rule="evenodd" d="M93 39C96.3137 39 99 41.6863 99 45C99 48.3137 96.3137 51 93 51C89.6863 51 87 48.3137 87 45C87 41.6863 89.6863 39 93 39ZM112 39C115.314 39 118 41.6863 118 45C118 48.3137 115.314 51 112 51C108.686 51 106 48.3137 106 45C106 41.6863 108.686 39 112 39ZM131 39C134.314 39 137 41.6863 137 45C137 48.3137 134.314 51 131 51C127.686 51 125 48.3137 125 45C125 41.6863 127.686 39 131 39Z" fill="white" stroke="#6634E9" stroke-width="2.5"/>
<path d="M72.6628 30.311C71.7548 31.843 70.968 33.4328 70.3125 35.072" stroke="#6634E9" stroke-width="2.5" stroke-linecap="round"/>
<path d="M91.0222 14.0732C84.4695 17.2006 78.9373 21.6244 74.9395 26.9203" stroke="#6634E9" stroke-width="2.5" stroke-linecap="round"/>
</svg>
