<svg width="18" height="19" viewBox="0 0 18 19" fill="none" xmlns="http://www.w3.org/2000/svg">
<path d="M17.6229 7.56314C17.3351 7.2699 16.8687 7.2699 16.5809 7.56314L8.55495 15.7802C7.11612 17.2472 4.7832 17.2473 3.34416 15.7806C1.90512 14.3139 1.90498 11.9357 3.34378 10.4687L11.117 2.51227C11.9872 1.63931 13.3869 1.65075 14.2432 2.53783C15.0897 3.41473 15.0899 4.82163 14.2436 5.69874L6.47034 13.6552C6.17906 13.9396 5.71967 13.9396 5.42842 13.6552C5.14076 13.3618 5.14076 12.8863 5.42842 12.593L12.3491 5.50571C12.6318 5.2073 12.6237 4.73177 12.331 4.44356C12.0455 4.1624 11.5927 4.1624 11.3072 4.44356L4.3865 11.5309C3.52311 12.4108 3.52301 13.8377 4.38622 14.7178C4.38632 14.7179 4.38639 14.718 4.3865 14.7181C5.26145 15.5692 6.63807 15.5692 7.51302 14.7181L15.2855 6.76096C16.7059 5.27564 16.6762 2.89776 15.2191 1.4498C13.7881 0.0276589 11.5059 0.0278349 10.0751 1.45012L2.30186 9.40651C0.287402 11.4601 0.287402 14.7896 2.30186 16.8431C4.31631 18.8967 7.58242 18.8967 9.59687 16.8431L17.6229 8.62831C17.9114 8.33574 17.9127 7.86014 17.6257 7.56599C17.6247 7.56504 17.6238 7.56409 17.6229 7.56314Z" fill="#9D9EAB"/>
</svg>
