<svg width="13" height="14" viewBox="0 0 13 14" fill="none" xmlns="http://www.w3.org/2000/svg">
<g clip-path="url(#clip0_2192_14045)">
<path d="M6.68521 0.000485182C6.61637 0.0286696 6.5492 0.0607862 6.48404 0.0966749C6.39019 0.152915 6.31323 0.233413 6.26127 0.329698C6.2093 0.425983 6.18425 0.534494 6.18875 0.643814C6.18617 1.45573 6.18306 2.26765 6.18875 3.07905C6.19186 3.40072 6.39251 3.64171 6.67125 3.69963C6.80631 3.73153 6.94823 3.716 7.07319 3.65564C7.19815 3.59528 7.29854 3.49376 7.3575 3.36814C7.40034 3.27112 7.42321 3.16648 7.42473 3.06043C7.4299 2.26196 7.42732 1.46349 7.42783 0.665017C7.42783 0.315427 7.24218 0.107534 6.9231 0.000485182H6.68521Z" fill="#FAAD13"/>
<path d="M7.42842 11.7674C7.42842 11.3599 7.43204 10.9524 7.42842 10.5449C7.42532 10.2713 7.29758 10.0655 7.04314 9.96152C6.93483 9.91324 6.81448 9.89871 6.69779 9.91983C6.58109 9.94096 6.47347 9.99676 6.38896 10.0799C6.322 10.1419 6.26943 10.2177 6.23494 10.3022C6.20045 10.3866 6.18489 10.4776 6.18934 10.5687C6.18934 11.3707 6.1852 12.1718 6.18934 12.9744C6.18934 13.31 6.38172 13.5433 6.68218 13.6126C6.81499 13.6422 6.95394 13.6257 7.07614 13.5659C7.19835 13.506 7.29651 13.4063 7.35447 13.2831C7.3997 13.1779 7.42344 13.0647 7.42428 12.9501C7.43359 12.556 7.42842 12.162 7.42842 11.7674Z" fill="#FAAD13"/>
<path d="M11.8048 2.41354C11.8036 2.29975 11.7697 2.18871 11.7072 2.09363C11.6446 1.99855 11.5561 1.92345 11.4521 1.87726C11.2287 1.77125 10.9929 1.77849 10.817 1.94915C10.1851 2.563 9.55985 3.18461 8.9491 3.81966C8.73707 4.03997 8.78103 4.39783 8.99513 4.61762C9.10053 4.72393 9.24082 4.78856 9.39012 4.79958C9.53943 4.81061 9.68768 4.76729 9.80756 4.67761C9.84952 4.64588 9.88926 4.61132 9.92651 4.57418C10.4781 4.02256 11.0297 3.47093 11.5814 2.91931C11.722 2.77917 11.8141 2.61988 11.8048 2.41354Z" fill="#FAAD13"/>
<path d="M1.81739 11.3003C1.82721 11.4492 1.93478 11.6313 2.15043 11.742C2.36608 11.8526 2.57811 11.8314 2.78031 11.7021C2.79909 11.6904 2.81644 11.6765 2.83203 11.6608C3.43967 11.0531 4.05404 10.4527 4.65083 9.8342C4.89802 9.57563 4.837 9.17174 4.55619 8.95506C4.45187 8.87495 4.32463 8.83037 4.19312 8.82785C4.06162 8.82534 3.93277 8.86503 3.82546 8.9411C3.78273 8.97246 3.74244 9.00703 3.70497 9.04452C3.14645 9.60166 2.58862 10.1591 2.03149 10.717C1.89444 10.8519 1.80601 11.0086 1.81739 11.3003Z" fill="#FAAD13"/>
<path d="M4.79643 4.24689C4.79643 4.00745 4.72972 3.86162 4.60923 3.74112C4.03106 3.16037 3.45393 2.57806 2.87007 2.00299C2.81421 1.94251 2.74679 1.89383 2.67181 1.85982C2.59682 1.82582 2.51579 1.80718 2.43348 1.80501C2.35118 1.80284 2.26927 1.81718 2.19259 1.84718C2.11592 1.87718 2.04603 1.92224 1.98706 1.97969C1.92809 2.03715 1.88122 2.10583 1.84922 2.1817C1.81723 2.25756 1.80076 2.33907 1.80078 2.4214C1.8008 2.50373 1.81732 2.58523 1.84936 2.66108C1.88139 2.73693 1.9283 2.80559 1.9873 2.86301C2.56961 3.45876 3.16019 4.04572 3.75387 4.63009C3.94573 4.81833 4.18465 4.85557 4.43029 4.748C4.67594 4.64044 4.78971 4.44444 4.79643 4.24689Z" fill="#FAAD13"/>
<path d="M1.85607 7.42897C2.27703 7.42897 2.69799 7.43414 3.11894 7.42897C3.24556 7.4244 3.36763 7.38064 3.4683 7.30373C3.56898 7.22681 3.64329 7.12054 3.68098 6.99958C3.71867 6.87862 3.71788 6.74894 3.67871 6.62845C3.63954 6.50797 3.56394 6.40261 3.46233 6.32693C3.36583 6.25742 3.25201 6.2159 3.13342 6.20695C2.27875 6.19696 1.42391 6.19696 0.568899 6.20695C0.244132 6.21006 -0.00358085 6.495 3.91705e-05 6.82339C0.00365919 7.15178 0.248786 7.42069 0.568899 7.42897C0.99813 7.43983 1.42788 7.43155 1.85763 7.43155L1.85607 7.42897Z" fill="#FAAD13"/>
<path d="M11.7696 6.19736C11.5654 6.19736 11.3611 6.19374 11.1573 6.19736C10.7953 6.20563 10.5244 6.47093 10.5254 6.81535C10.5264 7.15977 10.7953 7.42506 11.1604 7.42972C11.5638 7.43489 11.9674 7.43489 12.3711 7.42972C12.7372 7.42454 12.9999 7.16132 12.9994 6.81224C12.9989 6.46317 12.7357 6.20512 12.3685 6.19736C12.1689 6.19374 11.9687 6.19736 11.7696 6.19736Z" fill="#FAAD13"/>
</g>
<defs>
<clipPath id="clip0_2192_14045">
<rect width="13" height="13.6268" fill="white" transform="matrix(1 0 0 -1 0 13.627)"/>
</clipPath>
</defs>
</svg>
