<svg width="76" height="27" viewBox="0 0 76 27" fill="none" xmlns="http://www.w3.org/2000/svg">
<rect x="0.308594" y="0.0283203" width="74.7969" height="26" rx="4" fill="#FFC01D" fill-opacity="0.09"/>
<path d="M18.6752 7.82432H21.9122C22.5015 7.82432 22.9869 7.90665 23.3682 8.07132C23.7495 8.22732 24.0485 8.43099 24.2652 8.68232C24.4905 8.92499 24.6465 9.20232 24.7332 9.51432C24.8199 9.81765 24.8632 10.1123 24.8632 10.3983C24.8632 10.6843 24.8199 10.9833 24.7332 11.2953C24.6465 11.5987 24.4905 11.876 24.2652 12.1273C24.0485 12.37 23.7495 12.5737 23.3682 12.7383C22.9869 12.8943 22.5015 12.9723 21.9122 12.9723H19.9232V17.0283H18.6752V7.82432ZM19.9232 11.8803H21.5612C21.8039 11.8803 22.0422 11.863 22.2762 11.8283C22.5189 11.785 22.7312 11.7113 22.9132 11.6073C23.1039 11.5033 23.2555 11.356 23.3682 11.1653C23.4809 10.966 23.5372 10.7103 23.5372 10.3983C23.5372 10.0863 23.4809 9.83499 23.3682 9.64432C23.2555 9.44499 23.1039 9.29332 22.9132 9.18932C22.7312 9.08532 22.5189 9.01599 22.2762 8.98132C22.0422 8.93799 21.8039 8.91632 21.5612 8.91632H19.9232V11.8803ZM26.9662 14.3763C26.9662 14.645 27.0226 14.892 27.1352 15.1173C27.2566 15.334 27.4126 15.5203 27.6032 15.6763C27.7939 15.8323 28.0149 15.9537 28.2662 16.0403C28.5176 16.127 28.7776 16.1703 29.0462 16.1703C29.4102 16.1703 29.7266 16.088 29.9952 15.9233C30.2639 15.75 30.5109 15.5247 30.7362 15.2473L31.6202 15.9233C30.9702 16.764 30.0602 17.1843 28.8902 17.1843C28.4049 17.1843 27.9629 17.102 27.5642 16.9373C27.1742 16.7727 26.8406 16.5473 26.5632 16.2613C26.2946 15.9667 26.0866 15.6243 25.9392 15.2343C25.7919 14.8357 25.7182 14.4067 25.7182 13.9473C25.7182 13.488 25.7962 13.0633 25.9522 12.6733C26.1169 12.2747 26.3379 11.9323 26.6152 11.6463C26.9012 11.3517 27.2392 11.122 27.6292 10.9573C28.0192 10.7927 28.4439 10.7103 28.9032 10.7103C29.4492 10.7103 29.9086 10.8057 30.2812 10.9963C30.6626 11.187 30.9746 11.4383 31.2172 11.7503C31.4599 12.0537 31.6332 12.4003 31.7372 12.7903C31.8499 13.1717 31.9062 13.5617 31.9062 13.9603V14.3763H26.9662ZM30.6582 13.4403C30.6496 13.1803 30.6062 12.942 30.5282 12.7253C30.4589 12.5087 30.3506 12.3223 30.2032 12.1663C30.0559 12.0017 29.8696 11.876 29.6442 11.7893C29.4276 11.694 29.1719 11.6463 28.8772 11.6463C28.5912 11.6463 28.3269 11.7027 28.0842 11.8153C27.8502 11.9193 27.6509 12.058 27.4862 12.2313C27.3216 12.4047 27.1916 12.5997 27.0962 12.8163C27.0096 13.0243 26.9662 13.2323 26.9662 13.4403H30.6582ZM33.3059 10.8663H34.4759V11.8153H34.5019C34.6492 11.486 34.9049 11.2217 35.2689 11.0223C35.6329 10.8143 36.0532 10.7103 36.5299 10.7103C36.8245 10.7103 37.1062 10.758 37.3749 10.8533C37.6522 10.94 37.8905 11.0787 38.0899 11.2693C38.2979 11.46 38.4625 11.707 38.5839 12.0103C38.7052 12.305 38.7659 12.656 38.7659 13.0633V17.0283H37.5959V13.3883C37.5959 13.1023 37.5569 12.8597 37.4789 12.6603C37.4009 12.4523 37.2969 12.2877 37.1669 12.1663C37.0369 12.0363 36.8852 11.9453 36.7119 11.8933C36.5472 11.8327 36.3739 11.8023 36.1919 11.8023C35.9492 11.8023 35.7239 11.8413 35.5159 11.9193C35.3079 11.9973 35.1259 12.123 34.9699 12.2963C34.8139 12.461 34.6925 12.6733 34.6059 12.9333C34.5192 13.1933 34.4759 13.501 34.4759 13.8563V17.0283H33.3059V10.8663ZM46.7045 17.0283H45.5345V16.1443H45.5085C45.2832 16.4737 44.9712 16.7293 44.5725 16.9113C44.1825 17.0933 43.7795 17.1843 43.3635 17.1843C42.8868 17.1843 42.4535 17.102 42.0635 16.9373C41.6822 16.7727 41.3528 16.543 41.0755 16.2483C40.8068 15.9537 40.5988 15.6113 40.4515 15.2213C40.3042 14.8313 40.2305 14.4067 40.2305 13.9473C40.2305 13.488 40.3042 13.0633 40.4515 12.6733C40.5988 12.2747 40.8068 11.9323 41.0755 11.6463C41.3528 11.3517 41.6822 11.122 42.0635 10.9573C42.4535 10.7927 42.8868 10.7103 43.3635 10.7103C43.8055 10.7103 44.2215 10.8057 44.6115 10.9963C45.0015 11.1783 45.3005 11.4297 45.5085 11.7503H45.5345V7.20032H46.7045V17.0283ZM43.5065 16.0923C43.8185 16.0923 44.1002 16.0403 44.3515 15.9363C44.6028 15.8237 44.8152 15.6763 44.9885 15.4943C45.1618 15.3037 45.2962 15.0783 45.3915 14.8183C45.4868 14.5497 45.5345 14.2593 45.5345 13.9473C45.5345 13.6353 45.4868 13.3493 45.3915 13.0893C45.2962 12.8207 45.1618 12.5953 44.9885 12.4133C44.8152 12.2227 44.6028 12.0753 44.3515 11.9713C44.1002 11.8587 43.8185 11.8023 43.5065 11.8023C43.1945 11.8023 42.9128 11.8587 42.6615 11.9713C42.4102 12.0753 42.1978 12.2227 42.0245 12.4133C41.8512 12.5953 41.7168 12.8207 41.6215 13.0893C41.5262 13.3493 41.4785 13.6353 41.4785 13.9473C41.4785 14.2593 41.5262 14.5497 41.6215 14.8183C41.7168 15.0783 41.8512 15.3037 42.0245 15.4943C42.1978 15.6763 42.4102 15.8237 42.6615 15.9363C42.9128 16.0403 43.1945 16.0923 43.5065 16.0923ZM48.5678 10.8663H49.7378V17.0283H48.5678V10.8663ZM48.2948 8.65632C48.2948 8.42232 48.3771 8.22299 48.5418 8.05832C48.7151 7.88499 48.9188 7.79832 49.1528 7.79832C49.3868 7.79832 49.5861 7.88499 49.7508 8.05832C49.9241 8.22299 50.0108 8.42232 50.0108 8.65632C50.0108 8.89032 49.9241 9.09399 49.7508 9.26732C49.5861 9.43199 49.3868 9.51432 49.1528 9.51432C48.9188 9.51432 48.7151 9.43199 48.5418 9.26732C48.3771 9.09399 48.2948 8.89032 48.2948 8.65632ZM51.5998 10.8663H52.7698V11.8153H52.7958C52.9432 11.486 53.1988 11.2217 53.5628 11.0223C53.9268 10.8143 54.3472 10.7103 54.8238 10.7103C55.1185 10.7103 55.4002 10.758 55.6688 10.8533C55.9462 10.94 56.1845 11.0787 56.3838 11.2693C56.5918 11.46 56.7565 11.707 56.8778 12.0103C56.9992 12.305 57.0598 12.656 57.0598 13.0633V17.0283H55.8898V13.3883C55.8898 13.1023 55.8508 12.8597 55.7728 12.6603C55.6948 12.4523 55.5908 12.2877 55.4608 12.1663C55.3308 12.0363 55.1792 11.9453 55.0058 11.8933C54.8412 11.8327 54.6678 11.8023 54.4858 11.8023C54.2432 11.8023 54.0178 11.8413 53.8098 11.9193C53.6018 11.9973 53.4198 12.123 53.2638 12.2963C53.1078 12.461 52.9865 12.6733 52.8998 12.9333C52.8132 13.1933 52.7698 13.501 52.7698 13.8563V17.0283H51.5998V10.8663ZM64.9985 16.9763C64.9985 17.4443 64.9161 17.869 64.7515 18.2503C64.5955 18.6403 64.3701 18.974 64.0755 19.2513C63.7808 19.5373 63.4255 19.7583 63.0095 19.9143C62.5935 20.0703 62.1341 20.1483 61.6315 20.1483C61.0421 20.1483 60.5005 20.066 60.0065 19.9013C59.5211 19.7367 59.0575 19.4507 58.6155 19.0433L59.4085 18.0553C59.7118 18.3847 60.0411 18.6317 60.3965 18.7963C60.7518 18.9697 61.1548 19.0563 61.6055 19.0563C62.0388 19.0563 62.3985 18.9913 62.6845 18.8613C62.9705 18.74 63.1958 18.5797 63.3605 18.3803C63.5338 18.181 63.6551 17.9513 63.7245 17.6913C63.7938 17.44 63.8285 17.1843 63.8285 16.9243V16.0143H63.7895C63.5641 16.387 63.2565 16.6643 62.8665 16.8463C62.4851 17.0197 62.0821 17.1063 61.6575 17.1063C61.2068 17.1063 60.7865 17.0283 60.3965 16.8723C60.0151 16.7077 59.6858 16.4867 59.4085 16.2093C59.1311 15.9233 58.9145 15.5897 58.7585 15.2083C58.6025 14.8183 58.5245 14.398 58.5245 13.9473C58.5245 13.4967 58.5981 13.0763 58.7455 12.6863C58.8928 12.2877 59.1008 11.941 59.3695 11.6463C59.6468 11.3517 59.9761 11.122 60.3575 10.9573C60.7475 10.7927 61.1808 10.7103 61.6575 10.7103C62.0735 10.7103 62.4765 10.8013 62.8665 10.9833C63.2651 11.1653 63.5771 11.421 63.8025 11.7503H63.8285V10.8663H64.9985V16.9763ZM61.8005 11.8023C61.4885 11.8023 61.2068 11.8587 60.9555 11.9713C60.7041 12.0753 60.4918 12.2227 60.3185 12.4133C60.1451 12.5953 60.0108 12.8207 59.9155 13.0893C59.8201 13.3493 59.7725 13.6353 59.7725 13.9473C59.7725 14.5713 59.9545 15.074 60.3185 15.4553C60.6825 15.828 61.1765 16.0143 61.8005 16.0143C62.4245 16.0143 62.9185 15.828 63.2825 15.4553C63.6465 15.074 63.8285 14.5713 63.8285 13.9473C63.8285 13.6353 63.7808 13.3493 63.6855 13.0893C63.5901 12.8207 63.4558 12.5953 63.2825 12.4133C63.1091 12.2227 62.8968 12.0753 62.6455 11.9713C62.3941 11.8587 62.1125 11.8023 61.8005 11.8023Z" fill="#FAAD13"/>
<ellipse cx="10.9215" cy="12.5283" rx="2.52692" ry="2.5" fill="#FAAD13"/>
</svg>
