<svg width="14" height="13" viewBox="0 0 14 13" fill="none" xmlns="http://www.w3.org/2000/svg">
<path d="M12.8027 0.842365C12.6195 0.653369 12.3916 0.515727 12.141 0.442738C11.8904 0.369749 11.6256 0.36388 11.3721 0.425698L3.19747 2.18091C2.7267 2.24672 2.2833 2.44522 1.91722 2.75404C1.55113 3.06286 1.27689 3.46974 1.12538 3.92886C0.973877 4.38798 0.951121 4.8811 1.05968 5.35269C1.16823 5.82428 1.40379 6.2556 1.73982 6.59809L2.61758 7.49236C2.66509 7.54078 2.70276 7.59827 2.72845 7.66154C2.75414 7.72482 2.76733 7.79264 2.76728 7.86111V9.51111C2.76841 9.74311 2.82079 9.97186 2.92055 10.1804L2.91647 10.184L2.92975 10.1976C3.07946 10.5044 3.32396 10.7526 3.62562 10.9038L3.6389 10.9174L3.64248 10.9132C3.84703 11.0149 4.07143 11.0683 4.29901 11.0694H5.91759C6.05301 11.0693 6.18293 11.124 6.27881 11.2215L7.15605 12.1158C7.39134 12.3583 7.67139 12.551 7.98005 12.6826C8.28871 12.8143 8.61988 12.8824 8.95448 12.883C9.23332 12.8826 9.51025 12.8362 9.7745 12.7455C10.2208 12.5961 10.6172 12.3226 10.9191 11.9558C11.221 11.5889 11.4163 11.1434 11.483 10.6694L13.2074 2.31789C13.2711 2.05728 13.2674 1.78425 13.1964 1.52557C13.1255 1.2669 12.9898 1.03146 12.8027 0.842365ZM3.34104 6.75695L2.46277 5.86268C2.25826 5.65922 2.11493 5.40051 2.04959 5.11693C1.98425 4.83334 1.99962 4.53663 2.09389 4.26164C2.18529 3.97951 2.35426 3.73009 2.58069 3.54302C2.80712 3.35596 3.0815 3.23913 3.37118 3.20643L11.4646 1.46945L3.78809 9.29601V7.86111C3.78886 7.65608 3.74975 7.45293 3.67302 7.2634C3.59628 7.07387 3.48345 6.90174 3.34104 6.75695ZM10.4791 10.4913C10.4398 10.779 10.3227 11.0498 10.1409 11.2734C9.95904 11.497 9.71967 11.6645 9.44963 11.7571C9.17959 11.8497 8.88957 11.8638 8.61213 11.7977C8.3347 11.7316 8.08082 11.588 7.879 11.383L7.00022 10.4872C6.85838 10.3418 6.68966 10.2265 6.50383 10.148C6.318 10.0695 6.11874 10.0293 5.91759 10.0299H4.51002L12.1876 2.20591L10.4791 10.4913Z" fill="#FAFBFC"/>
</svg>
