<svg width="17" height="16" viewBox="0 0 17 16" fill="none" xmlns="http://www.w3.org/2000/svg">
<g clip-path="url(#clip0_3388_19308)">
<path d="M11.0124 0H5.67904C4.79531 0.00105857 3.94808 0.352588 3.32318 0.97748C2.69829 1.60237 2.34676 2.4496 2.3457 3.33333V15.3333C2.3458 15.4546 2.37896 15.5735 2.44162 15.6773C2.50429 15.7811 2.59408 15.8659 2.70133 15.9225C2.80858 15.9791 2.92923 16.0053 3.05029 15.9984C3.17135 15.9915 3.28824 15.9517 3.38837 15.8833L4.79237 14.924L6.19637 15.8833C6.3073 15.9593 6.4386 15.9999 6.57304 15.9999C6.70748 15.9999 6.83878 15.9593 6.9497 15.8833L8.3497 14.924L9.7497 15.8833C9.8607 15.9594 9.99213 16.0002 10.1267 16.0002C10.2613 16.0002 10.3927 15.9594 10.5037 15.8833L11.9037 14.9247L13.3037 15.8827C13.4038 15.9508 13.5205 15.9905 13.6414 15.9973C13.7623 16.0041 13.8828 15.9779 13.9899 15.9214C14.0971 15.865 14.1868 15.7804 14.2495 15.6768C14.3121 15.5732 14.3454 15.4544 14.3457 15.3333V3.33333C14.3446 2.4496 13.9931 1.60237 13.3682 0.97748C12.7433 0.352588 11.8961 0.00105857 11.0124 0V0ZM13.0124 14.0667L12.279 13.5653C12.168 13.4891 12.0364 13.4483 11.9017 13.4483C11.767 13.4483 11.6354 13.4891 11.5244 13.5653L10.1244 14.5247L8.72437 13.5653C8.61338 13.4892 8.48195 13.4485 8.34737 13.4485C8.21279 13.4485 8.08136 13.4892 7.97037 13.5653L6.57037 14.5247L5.17037 13.5653C5.05951 13.4895 4.92834 13.449 4.79404 13.449C4.65973 13.449 4.52856 13.4895 4.4177 13.5653L3.67904 14.0667V3.33333C3.67904 2.8029 3.88975 2.29419 4.26482 1.91912C4.6399 1.54405 5.1486 1.33333 5.67904 1.33333H11.0124C11.5428 1.33333 12.0515 1.54405 12.4266 1.91912C12.8017 2.29419 13.0124 2.8029 13.0124 3.33333V14.0667Z" fill="#56A6D5"/>
<path d="M11.0127 5.33301H5.67936C5.31117 5.33301 5.0127 5.63148 5.0127 5.99967C5.0127 6.36786 5.31117 6.66634 5.67936 6.66634H11.0127C11.3809 6.66634 11.6794 6.36786 11.6794 5.99967C11.6794 5.63148 11.3809 5.33301 11.0127 5.33301Z" fill="#56A6D5"/>
<path d="M9.67936 8H5.67936C5.31117 8 5.0127 8.29848 5.0127 8.66667C5.0127 9.03486 5.31117 9.33333 5.67936 9.33333H9.67936C10.0476 9.33333 10.346 9.03486 10.346 8.66667C10.346 8.29848 10.0476 8 9.67936 8Z" fill="#56A6D5"/>
</g>
<defs>
<clipPath id="clip0_3388_19308">
<rect width="16" height="16" fill="white" transform="translate(0.345703)"/>
</clipPath>
</defs>
</svg>
