<svg width="17" height="17" viewBox="0 0 17 17" fill="none" xmlns="http://www.w3.org/2000/svg">
<g clip-path="url(#clip0_4186_19784)">
<path d="M12.4561 5.29559C12.2339 5.2513 12.0521 5.11239 11.9581 4.91375C10.9179 2.71864 8.50675 1.49123 6.09689 1.93549C3.90112 2.33814 2.17979 4.091 1.81271 6.29819C1.70399 6.94981 1.71205 7.6021 1.83486 8.23761C1.87512 8.44498 1.78587 8.67583 1.60266 8.84226C0.834272 9.54085 0.394043 10.5361 0.394043 11.5736C0.394043 13.6083 2.0496 15.2645 4.08499 15.2645H11.4669C14.2425 15.2645 16.5 13.007 16.5 10.2314C16.5 7.83899 14.7995 5.76267 12.4561 5.29559ZM10.5415 9.69923C10.4106 9.83009 10.2388 9.89586 10.067 9.89586C9.89522 9.89586 9.72342 9.83009 9.59256 9.69923L8.44702 8.55369V11.9091C8.44702 12.2802 8.14638 12.5802 7.77594 12.5802C7.4055 12.5802 7.10486 12.2802 7.10486 11.9091V8.55369L5.95932 9.69923C5.69693 9.96162 5.27281 9.96162 5.01041 9.69923C4.74802 9.43684 4.74802 9.01271 5.01041 8.75032L6.82703 6.9337C7.08607 6.67467 7.42631 6.54448 7.76654 6.54246L7.77594 6.54045L7.78534 6.54246C8.12624 6.54448 8.46581 6.67467 8.72485 6.9337L10.5415 8.75032C10.8039 9.01271 10.8039 9.43684 10.5415 9.69923Z" fill="#6634E9"/>
</g>
<defs>
<clipPath id="clip0_4186_19784">
<rect width="16.106" height="16.106" fill="white" transform="translate(0.394043 0.5)"/>
</clipPath>
</defs>
</svg>
