<svg width="18" height="18" viewBox="0 0 18 18" fill="none" xmlns="http://www.w3.org/2000/svg">
<path d="M2.92692 15.4737L2.803 15.9581C2.61957 15.9112 2.45213 15.8158 2.31824 15.6819L2.92692 15.4737ZM2.92692 15.4737L2.80301 15.9581C2.98563 16.0048 3.17742 16.0018 3.35845 15.9493L5.48892 15.3461C6.96542 16.1623 8.68306 16.4386 10.345 16.1228C12.0783 15.7935 13.6318 14.8428 14.7139 13.4492C15.7959 12.0556 16.3321 10.315 16.2218 8.55411C16.1114 6.79322 15.3621 5.13316 14.1145 3.88558C12.867 2.63801 11.2069 1.8887 9.44601 1.77835C7.68512 1.66799 5.94451 2.20418 4.55093 3.28623C3.15735 4.36829 2.20666 5.92181 1.87732 7.65514C1.56155 9.31706 1.83782 11.0347 2.65405 12.5112M2.92692 15.4737L2.65405 12.5112M2.65405 12.5112L2.05085 14.6416L2.65405 12.5112Z" stroke="#6634E9" stroke-linecap="round" stroke-linejoin="round"/>
<path d="M9 9.84375C9.46599 9.84375 9.84375 9.46599 9.84375 9C9.84375 8.53401 9.46599 8.15625 9 8.15625C8.53401 8.15625 8.15625 8.53401 8.15625 9C8.15625 9.46599 8.53401 9.84375 9 9.84375Z" fill="#6634E9"/>
<path d="M5.625 9.84375C6.09099 9.84375 6.46875 9.46599 6.46875 9C6.46875 8.53401 6.09099 8.15625 5.625 8.15625C5.15901 8.15625 4.78125 8.53401 4.78125 9C4.78125 9.46599 5.15901 9.84375 5.625 9.84375Z" fill="#6634E9"/>
<path d="M12.375 9.84375C12.841 9.84375 13.2188 9.46599 13.2188 9C13.2188 8.53401 12.841 8.15625 12.375 8.15625C11.909 8.15625 11.5312 8.53401 11.5312 9C11.5312 9.46599 11.909 9.84375 12.375 9.84375Z" fill="#6634E9"/>
</svg>
