<svg width="15" height="14" viewBox="0 0 15 14" fill="none" xmlns="http://www.w3.org/2000/svg">
<path d="M15 4.6875V10.3125C15 12.2075 13.4581 13.75 11.5625 13.75H10.9375C9.705 13.7288 9.70563 11.8956 10.9375 11.875H11.5625C12.4237 11.875 13.125 11.1744 13.125 10.3125V4.6875C13.125 4.58063 13.1137 4.47563 13.0931 4.375H1.875V10.3125C1.875 11.1744 2.57625 11.875 3.4375 11.875H4.0625C5.295 11.8962 5.29437 13.7294 4.0625 13.75H3.4375C1.5425 13.75 0 12.2075 0 10.3125V3.4375C0 1.5425 1.5425 0 3.4375 0H5.0175C5.35563 0 5.69375 0.08 5.99563 0.230625L7.9675 1.21625C8.01188 1.23875 8.05937 1.25 8.1075 1.25H11.5625C13.4581 1.25 15 2.7925 15 4.6875ZM9.91938 8.3075L7.9425 6.33062C7.69812 6.08625 7.3025 6.08625 7.05875 6.33062L5.08187 8.3075C4.68812 8.70125 4.96688 9.37437 5.52375 9.37437H6.56313V12.8125C6.58437 14.045 8.4175 14.0444 8.43813 12.8125V9.37437H9.47812C10.035 9.37437 10.3131 8.70125 9.91938 8.3075Z" fill="#6634E9"/>
</svg>
