<svg width="19" height="18" viewBox="0 0 19 18" fill="none" xmlns="http://www.w3.org/2000/svg">
<path d="M11.6483 5.62483L5.79122 11.5803C5.59732 11.7943 5.49314 12.0747 5.50024 12.3634C5.50735 12.6521 5.62521 12.927 5.82941 13.1312C6.03361 13.3354 6.30852 13.4532 6.59721 13.4603C6.88591 13.4674 7.16628 13.3633 7.38029 13.1694L14.3623 6.08889C14.7501 5.66089 14.9585 5.10014 14.9443 4.52274C14.9301 3.94535 14.6944 3.39554 14.2859 2.98714C13.8775 2.57873 13.3277 2.34302 12.7503 2.32881C12.1729 2.31459 11.6122 2.52296 11.1842 2.91077L4.20216 9.99124C3.56999 10.6234 3.21484 11.4808 3.21484 12.3748C3.21484 13.2689 3.56999 14.1263 4.20216 14.7584C4.83433 15.3906 5.69173 15.7457 6.58575 15.7457C7.47978 15.7457 8.33718 15.3906 8.96935 14.7584L14.742 8.99983" stroke="#6634E9" stroke-linecap="round" stroke-linejoin="round"/>
</svg>
