<svg width="23" height="23" viewBox="0 0 23 23" fill="none" xmlns="http://www.w3.org/2000/svg">
<rect width="23" height="23" rx="4" fill="#329C47" fill-opacity="0.1"/>
<path d="M9.27996 11.9496C9.17192 11.8098 9.14826 11.624 9.21801 11.4625C9.28766 11.301 9.44023 11.188 9.61802 11.1664C9.79582 11.1447 9.97194 11.2175 10.08 11.3575L10.855 12.3609L12.9401 9.77654V9.77643C13.0226 9.67558 13.1424 9.6108 13.2736 9.59605C13.4047 9.58141 13.5364 9.61812 13.6401 9.69809C13.7438 9.77818 13.8111 9.89519 13.8269 10.0236C13.8429 10.1521 13.8063 10.2813 13.725 10.3833L11.225 13.467C11.1307 13.5839 10.9872 13.6524 10.835 13.6531C10.6793 13.6515 10.5333 13.5791 10.4401 13.4573L9.27996 11.9496ZM11.555 5.75297L11.9651 5.35156C12.0945 5.22744 12.1466 5.04498 12.1015 4.87314C12.0564 4.70129 11.9211 4.56603 11.7464 4.51826C11.5719 4.47062 11.3845 4.51771 11.255 4.64183L10.005 5.88997C9.90565 5.9824 9.8494 6.11067 9.8494 6.24485C9.8494 6.37903 9.90565 6.50728 10.005 6.59973L11.255 7.81847C11.3493 7.91014 11.4771 7.96116 11.61 7.9604C11.743 7.96116 11.8707 7.91014 11.9651 7.81847C12.0582 7.72681 12.1104 7.60269 12.1104 7.47344C12.1104 7.34408 12.0582 7.22007 11.9651 7.12829L11.56 6.7318V6.73191C12.7449 6.74458 13.8866 7.16871 14.7816 7.9287C15.6767 8.6888 16.267 9.73525 16.4472 10.8817C16.6275 12.0281 16.3859 13.2 15.7657 14.1883C15.1455 15.1766 14.1869 15.9171 13.0607 16.278C11.9347 16.6389 10.7143 16.5965 9.61695 16.1585C8.51984 15.7204 7.61724 14.9152 7.07012 13.8863C6.52291 12.8575 6.36687 11.6719 6.62959 10.5409C6.89232 9.40984 7.55684 8.40688 8.50475 7.71092C8.64761 7.60504 8.72206 7.43264 8.69996 7.25859C8.67775 7.08455 8.56245 6.93529 8.39738 6.86702C8.23231 6.79884 8.04268 6.82189 7.89971 6.92776C6.76185 7.76324 5.96429 8.96725 5.64909 10.3249C5.33402 11.6828 5.52185 13.106 6.17913 14.3408C6.83651 15.5755 7.92057 16.5416 9.23777 17.0665C10.5552 17.5915 12.0203 17.6412 13.3716 17.2069C14.7229 16.7727 15.8727 15.8824 16.6159 14.6952C17.359 13.508 17.6472 12.1009 17.4289 10.725C17.2107 9.3491 16.5002 8.09386 15.4243 7.18317C14.3484 6.27251 12.9769 5.76567 11.5545 5.753L11.555 5.75297Z" fill="#329C47"/>
</svg>
