<svg width="25" height="25" viewBox="0 0 25 25" fill="none" xmlns="http://www.w3.org/2000/svg">
<rect x="0.5" y="0.5" width="24" height="24" rx="3.5" fill="white" stroke="#E8EBF4"/>
<g clip-path="url(#clip0_1181_20080)">
<path d="M13.1071 12.4964L17.522 8.0814C17.6866 7.91102 17.6819 7.63947 17.5115 7.4749C17.3453 7.31436 17.0818 7.31436 16.9156 7.4749L12.5006 11.8899L8.0856 7.4749C7.9152 7.31033 7.64367 7.31506 7.4791 7.48544C7.31855 7.65165 7.31855 7.91518 7.4791 8.0814L11.8941 12.4964L7.4791 16.9113C7.31165 17.0788 7.31165 17.3504 7.4791 17.5178C7.6466 17.6853 7.91811 17.6853 8.0856 17.5178L12.5006 13.1029L16.9155 17.5178C17.083 17.6853 17.3545 17.6853 17.522 17.5178C17.6895 17.3503 17.6895 17.0788 17.522 16.9113L13.1071 12.4964Z" fill="#40415A"/>
</g>
<defs>
<clipPath id="clip0_1181_20080">
<rect width="10.2941" height="10.2941" fill="white" transform="translate(7.35352 7.35254)"/>
</clipPath>
</defs>
</svg>
