<svg width="124" height="19" viewBox="0 0 124 19" fill="none" xmlns="http://www.w3.org/2000/svg">
<path d="M58.8853 12.0845C58.9812 12.7558 58.5975 13.4911 57.8942 13.7788C57.8303 13.8108 57.7663 13.8108 57.7344 13.8428C57.7024 13.8428 57.7024 13.8747 57.7024 13.9067C57.7024 14.1624 57.6704 14.4182 57.6385 14.6739C57.4786 15.3453 57.159 15.8887 56.6475 16.3363C56.2958 16.656 55.9122 16.8798 55.4646 17.0396C55.1769 17.1675 54.9211 17.2314 54.6334 17.2954C54.4736 17.3273 54.2818 17.3593 54.1219 17.3913C53.9621 17.4232 53.8022 17.4232 53.6424 17.4552C53.2588 17.5191 52.8752 17.5831 52.4915 17.647C51.98 17.7429 51.4366 17.8069 50.9251 17.9347C50.4455 18.0306 49.998 18.1585 49.5184 18.2864C49.3586 18.3184 49.2307 18.3503 49.0709 18.3823C48.6873 18.4782 48.2717 18.5741 47.8881 18.67C47.2167 18.8299 46.5454 18.8618 45.874 18.7339C45.1707 18.6061 44.5633 18.2864 44.0518 17.7429C43.7961 17.4872 43.6043 17.1675 43.4764 16.8478C43.4444 16.7519 43.4444 16.7519 43.3166 16.7519C43.0928 16.7839 42.837 16.7199 42.6132 16.656C42.1976 16.4961 41.9099 16.2084 41.7181 15.7928C41.7181 15.7609 41.6861 15.7609 41.6861 15.7289C41.6861 15.6969 41.6542 15.665 41.6542 15.665C41.6542 15.633 41.6542 15.633 41.6222 15.601C41.5583 15.2494 41.4943 14.8977 41.3984 14.5461C41.3984 14.5141 41.3984 14.4821 41.3984 14.4502C41.3984 14.0985 41.4943 13.7788 41.6861 13.4911C41.9099 13.2034 42.1976 12.9796 42.5493 12.8837C42.5813 12.8837 42.6132 12.8517 42.6132 12.8198C42.6452 12.2443 42.869 11.7328 43.1887 11.2533C43.5403 10.7418 43.9879 10.3582 44.4994 10.0065C44.915 9.71881 45.3945 9.527 45.874 9.36715C46.1298 9.30322 46.3536 9.23928 46.6093 9.17534C47.3446 9.0155 48.1118 8.88763 48.8471 8.72778C48.943 8.69581 48.943 8.72778 48.9111 8.63188C48.8151 8.15235 48.7192 7.67281 48.6233 7.22525V7.19329C48.6233 7.12935 48.5914 7.12935 48.5594 7.12935C48.4955 7.12935 48.4635 7.12935 48.3995 7.12935C47.952 7.03345 47.6323 6.7777 47.4725 6.33014C47.2807 5.7547 47.6003 5.11533 48.1758 4.89155C48.7832 4.66777 49.4225 4.92352 49.6783 5.53092C49.934 6.10636 49.6783 6.7777 49.1029 7.03345C49.0709 7.03345 49.0709 7.06541 49.0389 7.06541C48.975 7.09738 48.975 7.09738 48.975 7.19329C49.0709 7.67282 49.1668 8.15234 49.2627 8.5999C49.2947 8.69581 49.2627 8.69581 49.3586 8.66384C50.0939 8.504 50.8292 8.37613 51.5644 8.21628C51.9161 8.15235 52.2677 8.08841 52.6194 8.05644C53.4826 7.9925 54.3137 8.12038 55.113 8.47203C55.5925 8.69581 56.0081 8.98353 56.3597 9.36715C56.5196 9.55897 56.6474 9.75077 56.7753 9.94258C56.8073 10.0065 56.8073 10.0065 56.9032 10.0065C57.5426 9.94259 58.2139 10.2623 58.5016 10.8697C58.5655 10.9656 58.5975 11.0615 58.6295 11.1894C58.6615 11.2213 58.6295 11.2533 58.6615 11.2853C58.7254 11.541 58.7574 11.7968 58.8213 12.0525C58.8852 12.0205 58.9172 12.0525 58.8853 12.0845Z" fill="#6634E9"/>
<path d="M49.39 8.91934C50.2212 8.75949 51.0843 8.56768 51.9155 8.40784C52.8106 8.248 53.6738 8.24799 54.5369 8.50374C55.0804 8.66359 55.5599 8.91934 55.9755 9.27099C56.2632 9.52674 56.487 9.84642 56.6469 10.1981C56.7108 10.326 56.7428 10.4538 56.7747 10.6137C56.9665 11.4768 57.1264 12.3719 57.3182 13.2351C57.4141 13.7146 57.4141 14.1622 57.2862 14.6417C57.1264 15.3131 56.7428 15.8565 56.1993 16.2721C55.8796 16.4959 55.5599 16.6877 55.1763 16.8156C54.9525 16.8795 54.7607 16.9435 54.5369 17.0074C54.3771 17.0394 54.2173 17.0713 54.0574 17.1033C53.8976 17.1353 53.7377 17.1672 53.5459 17.1672C53.1623 17.2312 52.7787 17.2951 52.395 17.359C51.9155 17.423 51.436 17.4869 50.9884 17.6148C50.6048 17.7107 50.1892 17.8066 49.8056 17.9025C49.6777 17.9345 49.5179 17.9664 49.39 17.9984C48.9744 18.0943 48.5588 18.1902 48.1432 18.3181C47.9834 18.3501 47.8235 18.414 47.6637 18.446C47.4719 18.4779 47.2801 18.5099 47.0883 18.5419C46.7366 18.5739 46.4169 18.5738 46.0653 18.5099C45.6497 18.446 45.2341 18.3181 44.8824 18.0943C44.3709 17.7746 44.0193 17.359 43.7635 16.8156C43.6676 16.5918 43.5717 16.368 43.5398 16.1123C43.3479 15.2491 43.1881 14.354 42.9963 13.4908C42.9004 12.9793 42.9643 12.4998 43.1881 12.0203C43.4119 11.5088 43.7955 11.0612 44.2111 10.7096C44.6586 10.3579 45.1382 10.0702 45.6816 9.84643C46.0333 9.71855 46.385 9.62265 46.7366 9.52674C47.6317 9.30296 48.4949 9.11115 49.39 8.91934Z" fill="white"/>
<path d="M57.3505 11.8921C57.2546 11.4446 57.1907 11.029 57.0948 10.5814C57.0628 10.4855 57.0628 10.3896 57.0308 10.3257C56.9988 10.2617 57.0308 10.2617 57.0628 10.2617C57.2546 10.2617 57.4464 10.2937 57.6382 10.3576C58.0538 10.5494 58.3096 10.8691 58.4055 11.3167C58.4694 11.5405 58.5014 11.7642 58.5334 11.988C58.6612 12.5954 58.3096 13.2348 57.7341 13.4586C57.6382 13.4905 57.6382 13.4905 57.6063 13.3946C57.6063 13.2987 57.5743 13.2028 57.5423 13.1069C57.5423 12.7233 57.4464 12.3077 57.3505 11.8921Z" fill="white"/>
<path d="M42.6135 13.1709C42.6454 13.1709 42.6454 13.1709 42.6454 13.2029C42.6454 13.4266 42.7094 13.6185 42.7733 13.8422C42.9332 14.5775 43.061 15.3128 43.2209 16.0481C43.2528 16.144 43.2528 16.2719 43.2848 16.3678C43.2848 16.3997 43.2848 16.4317 43.2528 16.4317C43.1889 16.4317 43.125 16.4317 43.093 16.4317C42.5176 16.3678 42.102 15.9522 41.9421 15.5046C41.9102 15.3448 41.8782 15.1849 41.8462 15.057C41.8142 14.8972 41.7823 14.7374 41.7503 14.5775C41.6864 14.034 42.0061 13.4906 42.4856 13.2668C42.5495 13.2348 42.5815 13.2029 42.6135 13.1709Z" fill="white"/>
<path d="M48.4951 5.08283C48.9426 4.98692 49.4221 5.27464 49.4861 5.75417C49.582 6.20173 49.2623 6.64929 48.8147 6.74519C48.3672 6.8411 47.9196 6.55339 47.8237 6.07386C47.7278 5.59433 48.0475 5.17873 48.4951 5.08283Z" fill="white"/>
<path d="M55.7212 11.3488C55.7532 11.4447 55.7851 11.5406 55.8171 11.6366C55.9769 12.3718 56.1368 13.1071 56.2647 13.8104C56.3606 14.3539 56.2007 14.8014 55.7851 15.1531C55.5614 15.3449 55.3376 15.4728 55.0818 15.5687C54.89 15.6326 54.6982 15.7285 54.5064 15.7605C54.1228 15.8564 53.7391 15.8244 53.3555 15.7285C53.0039 15.6646 52.6842 15.5367 52.3645 15.3769C52.0448 15.217 51.7251 15.1531 51.3735 15.1531C50.7341 15.1211 50.1587 15.281 49.6152 15.5687C49.3594 15.6966 49.1357 15.8884 48.9119 16.1122C48.5283 16.5277 48.0807 16.8794 47.5692 17.0712C47.3454 17.1671 47.0897 17.2311 46.8339 17.2311C46.5462 17.263 46.2585 17.263 46.0027 17.1991C45.747 17.1671 45.5232 17.0712 45.2994 16.9114C45.0117 16.7196 44.8519 16.4638 44.756 16.1441C44.756 16.1122 44.756 16.1122 44.724 16.0802C44.5961 15.4408 44.4683 14.8014 44.3404 14.1621C44.3404 14.1301 44.3084 14.1301 44.3404 14.0981C44.3723 14.0981 44.3723 14.1301 44.4043 14.1301C44.4363 14.194 44.5002 14.194 44.5641 14.194C44.9158 14.1621 45.2675 14.1301 45.6511 14.0981C45.9388 14.0662 46.2265 14.0342 46.5142 14.0022C46.5462 14.0022 46.5782 14.0022 46.6101 14.0022C46.6421 14.0022 46.6741 14.0342 46.6741 14.0662C46.9298 14.4178 47.2495 14.5777 47.6971 14.5137C47.9209 14.4818 48.1127 14.3859 48.2725 14.226C48.4004 14.0981 48.4963 13.9383 48.5283 13.7784C48.5283 13.7465 48.5602 13.7145 48.5922 13.6825C48.784 13.6506 48.9758 13.5866 49.1996 13.5547C49.5193 13.4907 49.839 13.4588 50.1267 13.3629C50.1587 13.3629 50.2226 13.3309 50.2546 13.3309C50.7341 13.235 51.1816 13.1071 51.6612 12.9792C51.789 12.9473 51.9169 12.9153 52.0768 12.8833C52.1407 12.8833 52.1407 12.9153 52.1727 12.9473C52.3325 13.171 52.5243 13.3309 52.8121 13.3948C53.1957 13.4907 53.5473 13.3629 53.8031 13.0751C53.9949 12.8514 54.0908 12.5956 54.0588 12.3079C54.0588 12.2759 54.0588 12.244 54.0588 12.18C54.1228 12.1161 54.2187 12.1161 54.3146 12.0521C54.7941 11.8284 55.2736 11.5726 55.7212 11.2529C55.6573 11.3808 55.6892 11.3488 55.7212 11.3488Z" fill="#B39AF4"/>
<path d="M55.7207 11.3491C55.5608 11.477 55.401 11.5729 55.2411 11.6688C54.8895 11.8606 54.5378 12.0525 54.1862 12.2123C54.1222 12.2443 54.0583 12.2762 53.9624 12.3082C53.9304 12.2762 53.8984 12.2123 53.8984 12.1803C53.7706 11.7647 53.355 11.477 52.9074 11.477C52.7476 11.477 52.5877 11.541 52.4279 11.6049C52.3959 11.6369 52.364 11.6369 52.4279 11.6688C52.5877 11.8287 52.6197 12.0525 52.4918 12.2123C52.364 12.3721 52.1402 12.4361 51.9484 12.3402C51.9484 12.3402 51.9484 12.3402 51.9164 12.3402C51.8844 12.3721 51.9164 12.4041 51.8844 12.4041C51.8844 12.564 51.8844 12.7238 51.9803 12.8836C51.9803 12.9156 52.0123 12.9476 52.0123 12.9795C51.8844 13.0115 51.7246 13.0755 51.5967 13.1074C51.4369 13.1394 51.277 13.2033 51.1172 13.2353C50.9893 13.2673 50.8614 13.2992 50.7655 13.3312C50.5737 13.3951 50.3499 13.4271 50.1262 13.4591C49.8384 13.555 49.5187 13.5869 49.1991 13.6509C48.9753 13.6829 48.7515 13.7468 48.5277 13.7788C48.4958 13.7468 48.5277 13.7148 48.5277 13.6829C48.5597 13.3951 48.4638 13.1394 48.272 12.9156C48.0802 12.6918 47.8244 12.5959 47.5687 12.564C47.3769 12.564 47.217 12.5959 47.0572 12.6599C46.9613 12.6918 46.9932 12.6918 47.0252 12.7558C47.1531 12.8517 47.1851 13.0115 47.1531 13.1714C47.1211 13.3312 47.0252 13.4271 46.8654 13.4591C46.7695 13.491 46.6736 13.491 46.5777 13.4271C46.5457 13.3951 46.5137 13.4271 46.5137 13.4591C46.5137 13.6509 46.5137 13.8107 46.6096 13.9706C46.6096 14.0025 46.6416 14.0345 46.6416 14.0665C46.5776 14.0345 46.5137 14.0665 46.4498 14.0665C46.3858 14.0665 46.2899 14.0984 46.226 14.0984C46.0661 14.1304 45.9063 14.1304 45.7145 14.1624C45.6506 14.1624 45.5547 14.1624 45.4907 14.1944C45.3628 14.2263 45.235 14.2263 45.1071 14.2263C45.0431 14.2263 44.9792 14.2263 44.9472 14.2583C44.8194 14.2583 44.6915 14.2903 44.5636 14.2903C44.4997 14.2903 44.4997 14.2903 44.4677 14.2263C44.4357 14.1944 44.4357 14.1624 44.4038 14.1624C44.4038 14.1944 44.4038 14.2263 44.4358 14.2583C44.5636 14.8977 44.6915 15.537 44.8194 16.1764V16.2084C44.7874 16.1764 44.7874 16.1444 44.7874 16.1125C44.6595 15.4092 44.4997 14.7059 44.3718 14.0025C44.3079 13.6189 44.3398 13.2673 44.4677 12.9156C44.6276 12.5 44.8833 12.1484 45.203 11.8287C45.6186 11.4131 46.1301 11.1254 46.6736 10.9016C46.9932 10.7737 47.3449 10.6778 47.6966 10.6139C49.0073 10.3581 50.3499 10.0704 51.6606 9.81466C52.332 9.68678 53.0033 9.68678 53.6427 9.81466C54.0903 9.91056 54.5059 10.0704 54.8895 10.2942C55.3051 10.5499 55.6248 10.8696 55.8166 11.3172C55.7207 11.3172 55.7207 11.3491 55.7207 11.3491Z" fill="#6634E9"/>
<path d="M46.5779 14.1306C46.5459 14.0667 46.5139 14.0027 46.5139 13.9388C46.45 13.7789 46.45 13.6191 46.4819 13.4593C46.4819 13.4593 46.4819 13.4593 46.4819 13.4273C46.6098 13.5232 46.7057 13.5232 46.8656 13.4912C46.9615 13.4593 47.0254 13.4273 47.0574 13.3314C47.1213 13.2355 47.1533 13.1396 47.1213 13.0117C47.0893 12.8838 47.0254 12.8199 46.9295 12.7559C47.0574 12.66 47.2172 12.5961 47.3771 12.5961C47.6328 12.5641 47.8885 12.5961 48.0804 12.7559C48.432 13.0117 48.5919 13.3314 48.5599 13.747C48.5599 13.7789 48.5599 13.8109 48.5599 13.8109C48.5279 13.9068 48.496 13.9708 48.464 14.0667C48.2722 14.4183 47.9845 14.6421 47.5689 14.6421C47.1852 14.6741 46.8656 14.4823 46.6418 14.1626C46.6098 14.1626 46.5779 14.1306 46.5779 14.1306Z" fill="white"/>
<path d="M52.043 13.0116C52.011 12.9477 51.979 12.8837 51.9471 12.7878C51.9151 12.6599 51.8831 12.4362 51.9471 12.3083C52.0749 12.4042 52.1709 12.4042 52.3307 12.3722C52.4266 12.3403 52.4905 12.2763 52.5545 12.2124C52.6184 12.1165 52.6184 12.0206 52.6184 11.8927C52.5864 11.7648 52.5225 11.7009 52.4266 11.6369C52.5545 11.541 52.6823 11.5091 52.8422 11.4771C53.1299 11.4132 53.4176 11.4771 53.6414 11.6689C53.8332 11.8288 53.9611 12.0206 54.057 12.2763V12.3083C54.089 12.4681 54.089 12.6599 54.025 12.8198C53.9291 13.1395 53.7053 13.3952 53.3537 13.4911C52.9381 13.651 52.3946 13.4911 52.1389 13.0436C52.043 13.0436 52.043 13.0436 52.043 13.0116Z" fill="white"/>
<path d="M89.5433 5.27598C89.5433 9.71961 89.5433 14.1632 89.5433 18.6389C88.84 18.6389 88.2006 18.6389 87.5293 18.6389C87.5293 12.8525 87.5293 7.06622 87.5293 1.24794C88.1687 1.24794 88.7761 1.24794 89.3835 1.24794C89.863 1.24794 90.0229 1.59959 90.2147 1.95125C90.9819 3.3259 91.7811 4.73251 92.5483 6.10716C93.891 8.5048 95.2337 10.9025 96.5764 13.3321C96.6404 13.2681 96.7363 13.2362 96.7682 13.1403C98.8142 9.43189 100.86 5.69157 102.874 1.95125C103.13 1.43975 103.482 1.184 104.057 1.24794C104.537 1.27991 105.048 1.24794 105.592 1.24794C105.592 7.09819 105.592 12.8525 105.592 18.6708C104.92 18.6708 104.281 18.6708 103.578 18.6708C103.578 14.1952 103.578 9.75158 103.578 5.30795C103.514 5.27598 103.482 5.27598 103.418 5.24401C103.29 5.43582 103.13 5.62764 103.034 5.85142C101.276 9.01631 99.5495 12.2132 97.7912 15.3781C97.5674 15.7617 97.3756 16.1453 96.8321 16.2092C96.1928 16.2732 95.7772 16.0494 95.4575 15.474C94.5304 13.7477 93.5714 12.0853 92.6123 10.359C91.7492 8.82449 90.918 7.32197 90.0548 5.78747C89.9589 5.59566 89.7991 5.40386 89.7032 5.21204C89.6712 5.24401 89.6073 5.27598 89.5433 5.27598Z" fill="#2B2442"/>
<path d="M0 1.24795C2.42961 1.34386 4.79528 1.05614 7.16095 1.43976C7.3208 1.47173 7.51262 1.5037 7.67246 1.56764C9.91026 2.17504 11.0292 3.45378 11.2529 5.62765C11.4448 7.6097 10.4537 9.46388 8.59954 10.4229C8.15198 10.6467 7.67246 10.8066 7.19293 11.0303C8.12002 12.3091 9.04711 13.5559 9.9742 14.8026C10.9013 16.0494 11.8284 17.3281 12.8194 18.6708C11.9562 18.6708 11.221 18.7348 10.5177 18.6389C10.198 18.6069 9.8783 18.2552 9.65452 17.9675C8.34381 16.2092 7.00112 14.419 5.75435 12.5968C5.14694 11.6697 4.41165 11.2541 3.32472 11.414C3.00504 11.4459 2.68536 11.414 2.3337 11.414C2.3337 13.8755 2.3337 16.2093 2.3337 18.6389C1.53449 18.6389 0.767246 18.6389 0 18.6389C0 12.8845 0 7.13017 0 1.24795ZM2.3337 9.7516C3.64442 9.68766 4.8912 9.68766 6.13797 9.55978C6.58553 9.52781 7.03309 9.30404 7.44868 9.04829C8.66348 8.31301 9.07907 7.16214 8.91922 5.78749C8.79135 4.47678 7.99215 3.6456 6.6175 3.29394C5.21088 2.94229 3.7723 3.10213 2.30174 3.10213C2.33371 5.33993 2.3337 7.48183 2.3337 9.7516Z" fill="#2B2442"/>
<path d="M114.736 10.8059C114.736 12.8519 114.736 14.77 114.736 16.7521C117.517 16.7521 120.234 16.7521 123.015 16.7521C123.015 17.4234 123.015 17.9989 123.015 18.6382C119.467 18.6382 115.918 18.6382 112.338 18.6382C112.338 12.8519 112.338 7.09758 112.338 1.2793C115.886 1.2793 119.435 1.2793 123.015 1.2793C123.015 1.8867 123.015 2.4941 123.015 3.16544C120.266 3.16544 117.549 3.16544 114.767 3.16544C114.767 5.11553 114.767 6.93774 114.767 8.91979C116.941 8.95176 119.147 8.91979 121.417 8.95176C121.417 9.55916 121.417 10.1346 121.417 10.8059C119.211 10.8059 117.005 10.8059 114.736 10.8059Z" fill="#2B2442"/>
<path d="M79.3149 7.28969C79.3149 5.14779 79.3149 3.0059 79.3149 0.832031C80.0822 0.832031 80.7535 0.832031 81.4888 0.832031C81.4888 6.77819 81.4888 12.6924 81.4888 18.5746C81.4248 18.6066 81.4249 18.6385 81.3929 18.6385C79.8264 18.8303 79.7944 18.8303 79.5067 17.2639C79.5067 17.168 79.4747 17.104 79.4108 16.9122C79.1551 17.136 78.9633 17.2959 78.7395 17.4877C77.7485 18.3508 76.6295 18.8623 75.2869 18.8303C73.4327 18.7984 72.09 17.9672 71.3867 16.3048C70.3637 13.9072 70.3317 11.4776 71.3867 9.07993C72.4097 6.77819 74.7114 5.65929 77.141 6.26669C77.8763 6.4585 78.5157 6.90606 79.3149 7.28969ZM79.3469 12.2768C79.3469 11.4136 79.3789 10.5824 79.3149 9.7193C79.3149 9.43158 79.1551 9.07993 78.9632 8.85615C77.4288 7.16181 74.4876 7.51346 73.4966 9.55945C72.5695 11.5095 72.6335 13.5555 73.4327 15.5695C73.8163 16.5286 74.6155 16.9762 75.6705 17.0721C77.0132 17.168 78.0681 16.6884 78.9632 15.6974C79.219 15.4097 79.3469 15.122 79.3469 14.7384C79.3149 13.9391 79.3469 13.108 79.3469 12.2768Z" fill="#2B2442"/>
<path d="M17.5504 12.5328C17.5504 13.5878 17.7102 14.419 18.0939 15.1862C18.7652 16.5609 20.1079 17.2642 21.7383 17.1683C22.5695 17.1043 23.3367 16.8486 24.072 16.465C25.2548 15.8256 25.2548 15.8256 26.0541 17.0724C25.6704 17.392 25.2868 17.7437 24.8393 17.9994C23.1129 18.9585 21.2588 19.1503 19.3726 18.6388C17.8381 18.2232 16.7192 17.2322 16.0799 15.7616C15.2167 13.8435 15.1208 11.8615 15.7921 9.9114C16.8791 6.74651 20.5555 5.27595 23.5605 6.7465C25.095 7.48178 25.8942 8.79249 26.1819 10.4229C26.3098 11.0942 26.4377 11.7656 26.118 12.5648C24.7114 12.6287 23.2728 12.5968 21.8662 12.5968C20.4276 12.5328 19.021 12.5328 17.5504 12.5328ZM17.7102 11.1262C19.8841 11.1262 22.0899 11.1262 24.2638 11.1262C24.2958 9.04824 23.1129 7.7695 21.1948 7.7695C19.1808 7.7695 17.6783 9.17612 17.7102 11.1262Z" fill="#2B2442"/>
<path d="M40.2798 7.76887C40.1519 7.96068 40.0879 8.05658 39.992 8.18445C39.4166 8.9517 39.4166 8.9517 38.5535 8.50414C38.01 8.21642 37.4346 7.96068 36.8272 7.89674C34.8771 7.64099 33.4385 8.63202 32.927 10.5501C32.5753 11.8928 32.5434 13.2355 32.959 14.5782C33.6942 17.0717 36.3157 17.9988 38.4576 16.5602C38.4895 16.5283 38.5215 16.5283 38.5215 16.4963C39.5765 15.761 39.6724 15.793 40.3757 17.0078C39.4486 18.1267 38.2018 18.6382 36.7632 18.798C33.0229 19.2136 30.7851 16.8799 30.4334 13.3634C30.3375 12.3084 30.4015 11.2534 30.7212 10.1985C31.4564 7.76886 33.1827 6.33028 35.7083 6.17044C37.4346 6.07453 38.9691 6.49012 40.2798 7.76887Z" fill="#2B2442"/>
<path d="M62.9778 18.6708C62.2106 18.6708 61.5392 18.6708 60.8359 18.6708C60.8359 14.6108 60.8359 10.5508 60.8359 6.49078C60.8999 6.45881 60.9318 6.39487 60.9958 6.39487C62.6262 6.29897 62.6262 6.29897 62.786 7.83346C62.818 7.9933 62.818 8.18511 62.85 8.40889C63.2336 8.31299 63.2975 7.96133 63.4893 7.73755C64.4484 6.42684 65.7591 5.88337 67.1657 6.26699C67.3575 6.33093 67.5493 6.42684 67.7411 6.52274C67.6772 7.06621 67.6452 7.60968 67.5813 8.12117C67.5813 8.18511 67.5174 8.28102 67.4215 8.44086C67.1337 8.40889 66.814 8.40889 66.4944 8.34495C64.6082 8.0892 63.0098 9.49582 62.9778 11.4139C62.9778 13.7796 62.9778 16.1773 62.9778 18.6708Z" fill="#2B2442"/>
<path d="M45.8105 4.95574C46.1942 4.8918 46.4179 4.82787 46.7696 4.7959C46.8335 5.14755 46.8975 5.43527 46.9614 5.78692C46.6098 5.85086 46.354 5.88283 46.0024 5.94676C45.9384 5.62708 45.8745 5.33936 45.8105 4.95574Z" fill="#6634E9"/>
</svg>
