<svg width="27" height="26" viewBox="0 0 27 26" fill="none" xmlns="http://www.w3.org/2000/svg">
<g clip-path="url(#clip0_1097_6960)">
<path d="M18.8105 6.6416L16.671 12.4507L18.7362 17.6656H14.7545L13.2539 21.677H20.2962L21.6928 25.1239H26.1202L18.8105 6.6416Z" fill="#77BC1F"/>
<path d="M20.7875 0.341939C16.7612 -0.445489 14.7704 1.7088 14.0869 3.4768C13.9532 3.81851 13.7749 4.27908 12.8389 6.74537C12.0812 -1.57463 4.19208 6.25508 0.28465 1.88708C-0.324493 5.66079 1.02751 6.10651 1.02751 6.10651C0.730364 7.32479 1.91894 8.66194 2.89951 8.48365C3.77608 12.5545 12.3338 6.68594 10.3132 13.3271C8.38179 18.3785 5.82636 25.0939 5.82636 25.0939H10.6401C10.6401 25.0939 17.3258 7.17622 17.7121 6.34422C18.2321 5.22994 19.8961 4.79908 21.2332 5.73508L22.9566 0.965939C22.0504 0.624225 21.3372 0.460796 20.7875 0.341939ZM10.8629 8.84022C9.33265 6.64137 5.45493 9.76136 4.62293 7.28022C3.64236 7.48822 3.28579 6.35908 3.52351 5.95794C3.52351 5.95794 2.70636 5.82422 2.79551 4.66537C5.75208 6.62651 11.4721 1.69394 10.8629 8.84022Z" fill="#007ABF"/>
</g>
<defs>
<clipPath id="clip0_1097_6960">
<rect width="26" height="24.9451" fill="white" transform="translate(0.121094 0.178711)"/>
</clipPath>
</defs>
</svg>
